<svg width="22" height="22" viewBox="0 0 22 22" fill="none" xmlns="http://www.w3.org/2000/svg">
<path d="M11 0C4.93477 0 0 4.93435 0 11C0 17.0657 4.93477 22 11 22C17.0652 22 22 17.0657 22 11C22 4.93435 17.0652 0 11 0ZM11 21.1538C5.40142 21.1538 0.846154 16.5986 0.846154 11C0.846154 5.40142 5.40142 0.846154 11 0.846154C16.5986 0.846154 21.1538 5.40142 21.1538 11C21.1538 16.5986 16.5986 21.1538 11 21.1538Z" fill="#A0A0A0"/>
<path d="M15.1069 6.89319C14.9415 6.72777 14.6741 6.72777 14.5087 6.89319L11.0001 10.4018L7.49152 6.89319C7.3261 6.72777 7.05872 6.72777 6.89329 6.89319C6.72787 7.05861 6.72787 7.326 6.89329 7.49142L10.4019 11L6.89329 14.5086C6.72787 14.674 6.72787 14.9414 6.89329 15.1068C6.97579 15.1893 7.0841 15.2308 7.19241 15.2308C7.30072 15.2308 7.40902 15.1893 7.49152 15.1068L11.0001 11.5982L14.5087 15.1068C14.5912 15.1893 14.6995 15.2308 14.8078 15.2308C14.9161 15.2308 15.0244 15.1893 15.1069 15.1068C15.2723 14.9414 15.2723 14.674 15.1069 14.5086L11.5983 11L15.1069 7.49142C15.2723 7.326 15.2723 7.05861 15.1069 6.89319Z" fill="#A0A0A0"/>
</svg>
