<?xml version="1.0" encoding="utf-8"?>
<!-- Generator: Adobe Illustrator 26.0.3, SVG Export Plug-In . SVG Version: 6.00 Build 0)  -->
<svg version="1.1" id="Слой_1" xmlns="http://www.w3.org/2000/svg" xmlns:xlink="http://www.w3.org/1999/xlink" x="0px" y="0px"
	 viewBox="0 0 350 800" style="enable-background:new 0 0 350 800;" xml:space="preserve">
<style type="text/css">
	.st0{fill:#FFE54A;}
	.st1{fill:#99B465;}
	.st2{fill:none;stroke:#FFE54A;stroke-miterlimit:10;}
	.st3{fill:none;stroke:#FFE54A;stroke-width:0.5;stroke-miterlimit:10;}
	.st4{opacity:0.7;fill:#FFE54A;enable-background:new    ;}
	.st5{opacity:0.7;fill:#2FA195;enable-background:new    ;}
	.st6{opacity:0.7;fill:#2FA195;stroke:#2FA195;stroke-width:3;stroke-miterlimit:10;enable-background:new    ;}
	.st7{fill:none;stroke:#2FA195;stroke-miterlimit:10;}
	.st8{fill:none;stroke:#2FA195;stroke-width:0.25;stroke-miterlimit:10;}
	.st9{opacity:0.8;fill:#205751;enable-background:new    ;}
	.st10{fill:none;stroke:#205751;stroke-miterlimit:10;}
	.st11{fill:none;stroke:#205751;stroke-width:0.25;stroke-miterlimit:10;}
	.st12{fill:none;stroke:#205751;stroke-width:0.1;stroke-miterlimit:10;}
</style>
<path id="flower" class="st0" d="M87.5,710.6C87.4,710.6,87.4,710.6,87.5,710.6c-0.3-0.4-1-0.5-1.4-0.6c-0.7-0.1-1.5-0.2-2.2,0.1
	c-1.4,0.6-1.7,2.4-1.7,3.8c0,0.4,0.4,0.5,0.6,0.3c-0.2,0.2-0.3,0.3-0.5,0.4c-0.1,0,0,0.2,0,0.2c0.1,0.1,0.1,0.1,0.2,0
	c0.5-0.4,1-0.8,1.3-1.4c0.1,0,0.2-0.1,0.2-0.2c0.1-0.5,0.3-1.2,0.9-1.5c0.2-0.1,0.4-0.1,0.6-0.1c-0.6,0.1-1.1,0.7-1.2,1.3
	c0,0.1,0.1,0.2,0.2,0.2s0.1-0.1,0.1-0.2c0-0.1,0-0.3,0.1-0.4c0,0.1,0,0.2,0.1,0.3c0.2,0.1,0.4,0.1,0.5,0s0.2-0.2,0.4-0.4
	c0,0,0.1,0,0.1-0.1l0,0c0.1,0,0.1-0.1,0.2-0.2c0.1,0,0.1-0.1,0.2-0.1c0,0,0,0,0.1,0c0,0,0,0-0.1,0.1s-0.2,0.2-0.3,0.3l0,0
	c-0.2,0.2-0.5,0.3-0.7,0.5c-0.2,0.1-0.3,0.2-0.5,0.2c-0.1,0-0.3,0.1-0.4,0c-0.2-0.1-0.3,0.2-0.1,0.3c0.1,0.1,0.2,0.1,0.3,0.1
	c-0.1,0-0.2,0.1-0.4,0.1c-0.2,0-0.4,0.2-0.4,0.4s0.2,0.4,0.4,0.4c0.8,0,1.5-0.5,2.1-1c0,0,0,0,0.1-0.1c0,0.1,0,0.2,0.1,0.2
	c0,0,0,0,0.1,0c-0.2,0.2-0.5,0.4-0.8,0.5c-0.1,0-0.1,0.1-0.1,0.2c-0.3,0.1-0.7,0.1-1,0.2c-0.6,0.1-1.3,0.2-1.8,0.5
	c-0.4,0.3,0,0.9,0.4,0.7c0.6-0.4,1.4-0.4,2.1-0.5s1.3-0.3,1.8-0.7c0.5-0.5,0.7-1.2,0.9-1.9C88,711.8,88,711.1,87.5,710.6z M84,711.3
	C84,711.3,84,711.4,84,711.3L84,711.3c0.1,0.1,0.1,0.1,0,0.2c-0.2,0.2-0.3,0.4-0.5,0.6c0,0.1,0,0.2,0,0.2c-0.1,0.2-0.2,0.5-0.2,0.7
	c-0.1,0.2,0,0.3,0.2,0.4c-0.2,0.3-0.4,0.6-0.7,0.8c0.1-0.1,0.1-0.1,0.1-0.3c0-0.6,0.1-1.2,0.2-1.8c0.1-0.5,0.3-1,0.8-1.2
	c0,0,0.1-0.1,0.2-0.1C84,711,84,711.1,84,711.3z"/>
<g id="dots">
	<path class="st1" d="M183.8,266.2c0.5,0,0.5-0.8,0-0.8C183.3,265.5,183.3,266.2,183.8,266.2z"/>
	<path class="st1" d="M190.7,296c0.5,0,0.5-0.8,0-0.8S190.2,296,190.7,296z"/>
	<path class="st1" d="M196,315.1c0.5,0,0.5-0.8,0-0.8C195.5,314.4,195.5,315.1,196,315.1z"/>
	<path class="st1" d="M195.1,330c0.5,0,0.5-0.8,0-0.8S194.6,330,195.1,330z"/>
	<path class="st1" d="M197.9,344.1c0.5,0,0.5-0.8,0-0.8C197.4,343.4,197.4,344.1,197.9,344.1z"/>
	<path class="st1" d="M197.4,384.7c0.5,0,0.5-0.8,0-0.8S196.9,384.7,197.4,384.7z"/>
	<path class="st1" d="M198.3,358.5c0.5,0,0.5-0.8,0-0.8C197.8,357.8,197.8,358.5,198.3,358.5z"/>
	<path class="st1" d="M195.4,400.1c0.5,0,0.5-0.8,0-0.8C194.9,399.3,194.9,400.1,195.4,400.1z"/>
	<path class="st1" d="M199.4,415.3c0.5,0,0.5-0.8,0-0.8S198.9,415.3,199.4,415.3z"/>
	<path class="st1" d="M200.6,431.8c0.5,0,0.5-0.8,0-0.8S200.1,431.8,200.6,431.8z"/>
	<path class="st1" d="M207.1,455c0.5,0,0.5-0.8,0-0.8S206.6,455,207.1,455z"/>
	<path class="st1" d="M250.9,389.7c0.5,0,0.5-0.8,0-0.8C250.4,389,250.4,389.7,250.9,389.7z"/>
	<path class="st1" d="M239.3,379.7c0.5,0,0.5-0.8,0-0.8S238.8,379.7,239.3,379.7z"/>
	<path class="st1" d="M263.9,390.7c0.5,0,0.5-0.8,0-0.8C263.5,389.9,263.5,390.7,263.9,390.7z"/>
	<path class="st1" d="M267,372.4c0.5,0,0.5-0.8,0-0.8S266.5,372.4,267,372.4z"/>
	<path class="st1" d="M267.2,357.9c0.5,0,0.5-0.8,0-0.8S266.7,357.9,267.2,357.9z"/>
	<path class="st1" d="M261.8,348.6c0.5,0,0.5-0.8,0-0.8C261.3,347.9,261.3,348.6,261.8,348.6z"/>
	<path class="st1" d="M244.8,326c0.5,0,0.5-0.8,0-0.8S244.3,326,244.8,326z"/>
	<path class="st1" d="M232.1,320.3c0.5,0,0.5-0.8,0-0.8S231.6,320.3,232.1,320.3z"/>
	<path class="st1" d="M211.6,309.5c0.5,0,0.5-0.8,0-0.8C211.1,308.8,211.1,309.5,211.6,309.5z"/>
	<path class="st1" d="M198.6,294.2c0.5,0,0.5-0.8,0-0.8C198.1,293.4,198.1,294.2,198.6,294.2z"/>
	<path class="st1" d="M201.6,207.3c0.5,0,0.5-0.8,0-0.8S201.1,207.3,201.6,207.3z"/>
	<path class="st1" d="M182.4,161.1c0.5,0,0.5-0.8,0-0.8S181.9,161.1,182.4,161.1z"/>
	<path class="st1" d="M191.5,144.1c0.5,0,0.5-0.8,0-0.8C191,143.4,191,144.1,191.5,144.1z"/>
	<path class="st1" d="M198.4,124.1c0.5,0,0.5-0.8,0-0.8C197.9,123.3,197.9,124.1,198.4,124.1z"/>
	<path class="st1" d="M205.1,90.1c0.5,0,0.5-0.8,0-0.8C204.6,89.3,204.6,90.1,205.1,90.1z"/>
	<path class="st1" d="M199.1,69.4c0.5,0,0.5-0.8,0-0.8S198.6,69.4,199.1,69.4z"/>
	<path class="st1" d="M200.8,36.6c0.5,0,0.5-0.8,0-0.8S200.3,36.6,200.8,36.6z"/>
	<path class="st1" d="M192.5,56c0.5,0,0.5-0.8,0-0.8C192,55.3,192,56,192.5,56z"/>
	<path class="st1" d="M213.9,44.9c0.5,0,0.5-0.8,0-0.8S213.4,44.9,213.9,44.9z"/>
	<path class="st1" d="M190,40.4c0.5,0,0.5-0.8,0-0.8C189.5,39.7,189.5,40.4,190,40.4z"/>
	<path class="st1" d="M180.6,26.1c0.5,0,0.5-0.8,0-0.8S180.1,26.1,180.6,26.1z"/>
	<path class="st1" d="M175.3,14.8c0.5,0,0.5-0.8,0-0.8C174.8,14.1,174.8,14.8,175.3,14.8z"/>
	<path class="st1" d="M189.2,9.4c0.5,0,0.5-0.8,0-0.8S188.7,9.4,189.2,9.4z"/>
	<path class="st1" d="M187.9,20.3c0.5,0,0.5-0.8,0-0.8S187.4,20.3,187.9,20.3z"/>
	<path class="st1" d="M206.9,16.3c0.5,0,0.5-0.8,0-0.8C206.4,15.6,206.4,16.3,206.9,16.3z"/>
	<path class="st1" d="M203.9,2.2c0.5,0,0.5-0.8,0-0.8C203.4,1.5,203.4,2.2,203.9,2.2z"/>
	<path class="st1" d="M239.9,49.3c0.5,0,0.5-0.8,0-0.8S239.4,49.3,239.9,49.3z"/>
	<path class="st1" d="M267.3,57.6c0.5,0,0.5-0.8,0-0.8C266.8,56.9,266.8,57.6,267.3,57.6z"/>
	<path class="st1" d="M276.5,74.8c0.5,0,0.5-0.8,0-0.8C276,74.1,276,74.8,276.5,74.8z"/>
	<path class="st1" d="M185.6,71.9c0.5,0,0.5-0.8,0-0.8S185.1,71.9,185.6,71.9z"/>
	<path class="st1" d="M172.7,87.6c0.5,0,0.5-0.8,0-0.8C172.2,86.9,172.2,87.6,172.7,87.6z"/>
	<path class="st1" d="M163.4,105.4c0.5,0,0.5-0.8,0-0.8C162.9,104.7,162.9,105.4,163.4,105.4z"/>
	<path class="st1" d="M153.1,118.3c0.5,0,0.5-0.8,0-0.8S152.6,118.3,153.1,118.3z"/>
	<path class="st1" d="M148.7,132.6c0.5,0,0.5-0.8,0-0.8S148.2,132.6,148.7,132.6z"/>
	<path class="st1" d="M140.4,152.4c0.5,0,0.5-0.8,0-0.8S139.9,152.4,140.4,152.4z"/>
	<path class="st1" d="M141,169c0.5,0,0.5-0.8,0-0.8S140.5,169,141,169z"/>
	<path class="st1" d="M141.7,193.1c0.5,0,0.5-0.8,0-0.8S141.2,193.1,141.7,193.1z"/>
	<path class="st1" d="M149.1,207.3c0.5,0,0.5-0.8,0-0.8C148.6,206.6,148.6,207.3,149.1,207.3z"/>
	<path class="st1" d="M158.3,228.6c0.5,0,0.5-0.8,0-0.8S157.8,228.6,158.3,228.6z"/>
	<path class="st1" d="M172,248.3c0.5,0,0.5-0.8,0-0.8S171.5,248.3,172,248.3z"/>
	<path class="st1" d="M147.9,228.9c0.5,0,0.5-0.8,0-0.8S147.4,228.9,147.9,228.9z"/>
	<path class="st1" d="M154.9,210.1c0.5,0,0.5-0.8,0-0.8S154.4,210.1,154.9,210.1z"/>
	<path class="st1" d="M156.7,196.6c0.5,0,0.5-0.8,0-0.8S156.2,196.6,156.7,196.6z"/>
	<path class="st1" d="M161.9,184.6h0.1h0.1c0,0,0.1,0,0.1-0.1l0.1-0.1v-0.1v-0.1c0-0.1,0-0.1-0.1-0.2c0,0-0.1,0-0.1-0.1
		c-0.1,0-0.1-0.1-0.2-0.1h-0.1h-0.1c0,0-0.1,0-0.1,0.1l-0.1,0.1v0.1v0.1c0,0.1,0,0.1,0.1,0.2c0,0,0.1,0,0.1,0.1
		C161.8,184.6,161.9,184.6,161.9,184.6z"/>
	<path class="st1" d="M166.1,161.4c0.5,0,0.5-0.8,0-0.8C165.7,160.6,165.7,161.4,166.1,161.4z"/>
	<path class="st1" d="M163.7,149.8c0.5,0,0.5-0.8,0-0.8C163.2,149.1,163.2,149.8,163.7,149.8z"/>
	<path class="st1" d="M157.7,161.6c0.5,0,0.5-0.8,0-0.8S157.2,161.6,157.7,161.6z"/>
	<path class="st1" d="M147.3,174.1c0.5,0,0.5-0.8,0-0.8S146.8,174.1,147.3,174.1z"/>
	<path class="st1" d="M174.5,134.9c0.5,0,0.5-0.8,0-0.8C174,134.2,174,134.9,174.5,134.9z"/>
	<path class="st1" d="M178,119.9c0.5,0,0.5-0.8,0-0.8C177.5,119.2,177.5,119.9,178,119.9z"/>
	<path class="st1" d="M164.6,137.4c0.5,0,0.5-0.8,0-0.8S164.1,137.4,164.6,137.4z"/>
	<path class="st1" d="M163.1,117.6c0.5,0,0.5-0.8,0-0.8C162.7,116.8,162.7,117.6,163.1,117.6z"/>
	<path class="st1" d="M156.4,102.4c0.5,0,0.5-0.8,0-0.8C156,101.6,156,102.4,156.4,102.4z"/>
	<path class="st1" d="M155.4,90.9c0.5,0,0.5-0.8,0-0.8S154.9,90.9,155.4,90.9z"/>
	<path class="st1" d="M149.8,73.4c0.5,0,0.5-0.8,0-0.8S149.3,73.4,149.8,73.4z"/>
	<path class="st1" d="M150.4,45.6c0.5,0,0.5-0.8,0-0.8C149.9,44.9,149.9,45.6,150.4,45.6z"/>
	<path class="st1" d="M149.6,22.5c0.5,0,0.5-0.8,0-0.8S149.1,22.5,149.6,22.5z"/>
	<path class="st1" d="M138.5,23.9c0.5,0,0.5-0.8,0-0.8C138,23.2,138,23.9,138.5,23.9z"/>
	<path class="st1" d="M155.8,41.1c0.5,0,0.5-0.8,0-0.8S155.3,41.1,155.8,41.1z"/>
	<path class="st1" d="M164.9,57.1c0.5,0,0.5-0.8,0-0.8C164.4,56.4,164.4,57.1,164.9,57.1z"/>
	<path class="st1" d="M181,85.2c0.5,0,0.5-0.8,0-0.8C180.5,84.4,180.5,85.2,181,85.2z"/>
	<path class="st1" d="M137.7,64.7c0.5,0,0.5-0.8,0-0.8C137.3,63.9,137.3,64.7,137.7,64.7z"/>
	<path class="st1" d="M167.4,14.7c0.5,0,0.5-0.8,0-0.8S166.9,14.7,167.4,14.7z"/>
	<path class="st1" d="M138.6,6c0.5,0,0.5-0.8,0-0.8S138.1,6,138.6,6z"/>
	<path class="st1" d="M111.1,46.4c0.5,0,0.5-0.8,0-0.8C110.6,45.7,110.6,46.4,111.1,46.4z"/>
	<path class="st1" d="M111.3,46.5c0.5,0,0.5-0.8,0-0.8S110.8,46.5,111.3,46.5z"/>
	<path class="st1" d="M92.9,140.6c0.5,0,0.5-0.8,0-0.8C92.4,139.9,92.4,140.6,92.9,140.6z"/>
	<path class="st1" d="M71.2,167.6c0.5,0,0.5-0.8,0-0.8C70.8,166.8,70.8,167.6,71.2,167.6z"/>
	<path class="st1" d="M63.7,196c0.5,0,0.5-0.8,0-0.8S63.2,196,63.7,196z"/>
	<path class="st1" d="M59.7,220c0.5,0,0.5-0.8,0-0.8S59.3,220,59.7,220z"/>
	<path class="st1" d="M56.5,255.1c0.5,0,0.5-0.8,0-0.8S56.1,255.1,56.5,255.1z"/>
	<path class="st1" d="M41.5,267.6c0.5,0,0.5-0.8,0-0.8S41,267.6,41.5,267.6z"/>
	<path class="st1" d="M19.9,264.4c0.5,0,0.5-0.8,0-0.8S19.4,264.4,19.9,264.4z"/>
	<path class="st1" d="M101.2,247.6c0.5,0,0.5-0.8,0-0.8C100.8,246.8,100.8,247.6,101.2,247.6z"/>
	<path class="st1" d="M95.6,268.6c0.5,0,0.5-0.8,0-0.8C95.1,267.9,95.1,268.6,95.6,268.6z"/>
	<path class="st1" d="M113.9,210.4c0.5,0,0.5-0.8,0-0.8C113.4,209.7,113.4,210.4,113.9,210.4z"/>
	<path class="st1" d="M125.4,197.2c0.5,0,0.5-0.8,0-0.8S124.9,197.2,125.4,197.2z"/>
	<path class="st1" d="M136.1,183.4c0.5,0,0.5-0.8,0-0.8C135.6,182.6,135.6,183.4,136.1,183.4z"/>
	<path class="st1" d="M183.8,185.7c0.5,0,0.5-0.8,0-0.8S183.4,185.7,183.8,185.7z"/>
	<path class="st1" d="M146.6,250c0.5,0,0.5-0.8,0-0.8S146.1,250,146.6,250z"/>
	<path class="st1" d="M146.6,288.8c0.5,0,0.5-0.8,0-0.8S146.1,288.8,146.6,288.8z"/>
	<path class="st1" d="M152.8,310.8c0.5,0,0.5-0.8,0-0.8S152.3,310.8,152.8,310.8z"/>
	<path class="st1" d="M153.7,327.4c0.5,0,0.5-0.8,0-0.8S153.2,327.4,153.7,327.4z"/>
	<path class="st1" d="M159.3,350.5c0.5,0,0.5-0.8,0-0.8S158.8,350.5,159.3,350.5z"/>
	<path class="st1" d="M158.4,363.9c0.5,0,0.5-0.8,0-0.8S157.9,363.9,158.4,363.9z"/>
	<path class="st1" d="M162.3,383.2c0.5,0,0.5-0.8,0-0.8C161.8,382.4,161.8,383.2,162.3,383.2z"/>
	<path class="st1" d="M162.9,419.9c0.5,0,0.5-0.8,0-0.8S162.4,419.9,162.9,419.9z"/>
	<path class="st1" d="M160.1,437.9c0.5,0,0.5-0.8,0-0.8C159.6,437.2,159.6,437.9,160.1,437.9z"/>
	<path class="st1" d="M155,488.1c0.5,0,0.5-0.8,0-0.8C154.5,487.4,154.5,488.1,155,488.1z"/>
	<path class="st1" d="M148.1,506.5c0.5,0,0.5-0.8,0-0.8S147.6,506.5,148.1,506.5z"/>
	<path class="st1" d="M145.7,522.2c0.5,0,0.5-0.8,0-0.8S145.2,522.2,145.7,522.2z"/>
	<path class="st1" d="M137.4,539.8c0.5,0,0.5-0.8,0-0.8S136.9,539.8,137.4,539.8z"/>
	<path class="st1" d="M132.5,560.3c0.5,0,0.5-0.8,0-0.8C132,559.6,132,560.3,132.5,560.3z"/>
	<path class="st1" d="M125.1,574.7c0.5,0,0.5-0.8,0-0.8S124.6,574.7,125.1,574.7z"/>
	<path class="st1" d="M113.6,612.4c0.5,0,0.5-0.8,0-0.8C113.1,611.7,113.1,612.4,113.6,612.4z"/>
	<path class="st1" d="M105.2,631.5c0.5,0,0.5-0.8,0-0.8S104.7,631.5,105.2,631.5z"/>
	<path class="st1" d="M99.8,663.6c0.5,0,0.5-0.8,0-0.8C99.3,662.9,99.3,663.6,99.8,663.6z"/>
	<path class="st1" d="M95.6,691c0.5,0,0.5-0.8,0-0.8S95.1,691,95.6,691z"/>
	<path class="st1" d="M100.6,710.7c0.5,0,0.5-0.8,0-0.8C100.1,710,100.1,710.7,100.6,710.7z"/>
	<path class="st1" d="M104.4,727.5c0.5,0,0.5-0.8,0-0.8S103.9,727.5,104.4,727.5z"/>
	<path class="st1" d="M129.2,747.2c0.5,0,0.5-0.8,0-0.8S128.7,747.2,129.2,747.2z"/>
	<path class="st1" d="M143.9,754.1c0.5,0,0.5-0.8,0-0.8C143.4,753.4,143.4,754.1,143.9,754.1z"/>
	<path class="st1" d="M160.2,755.9c0.5,0,0.5-0.8,0-0.8C159.7,755.2,159.7,755.9,160.2,755.9z"/>
	<path class="st1" d="M182.2,752.7c0.5,0,0.5-0.8,0-0.8S181.7,752.7,182.2,752.7z"/>
	<path class="st1" d="M187.4,721.6c0.5,0,0.5-0.8,0-0.8S186.9,721.6,187.4,721.6z"/>
	<path class="st1" d="M55.4,45.6c0.5,0,0.5-0.8,0-0.8C54.9,44.9,54.9,45.6,55.4,45.6z"/>
	<path class="st1" d="M40.3,67.1c0.5,0,0.5-0.8,0-0.8S39.9,67.1,40.3,67.1z"/>
	<path class="st1" d="M49.8,103.6c0.5,0,0.5-0.8,0-0.8C49.3,102.8,49.3,103.6,49.8,103.6z"/>
	<path class="st1" d="M132.3,46.4c0.5,0,0.5-0.8,0-0.8C131.8,45.7,131.8,46.4,132.3,46.4z"/>
	<path class="st1" d="M261.7,151.8c0.5,0,0.5-0.8,0-0.8C261.2,151.1,261.2,151.8,261.7,151.8z"/>
	<path class="st1" d="M255.3,148.8c0.5,0,0.5-0.8,0-0.8S254.8,148.8,255.3,148.8z"/>
	<path class="st1" d="M246.9,146.2c-0.1,0-0.2,0-0.3,0s-0.1,0-0.1,0c-0.1,0-0.1,0-0.1,0.1l-0.1,0.1v0.1v0.1c0,0.1,0.1,0.1,0.1,0.2
		c0,0,0.1,0,0.1,0.1c0.1,0,0.1,0.1,0.2,0.1c0.1,0,0.2,0,0.3,0s0.1,0,0.1,0c0.1,0,0.1,0,0.1-0.1l0.1-0.1v-0.1v-0.1
		c0-0.1,0-0.1-0.1-0.2c0,0-0.1,0-0.1-0.1C247,146.3,247,146.2,246.9,146.2z"/>
</g>
<g id="books">
	<g id="book2">
		<path class="st2" d="M196.7,175.1l21.7,30.1c0,0-3,5.5,7.7,11.2l25.8,34.3"/>
		<path class="st2" d="M196.7,175.1l21.3-2"/>
		<path class="st2" d="M251.9,250.8l33.8-20.1"/>
		<path class="st3" d="M202.5,177.9l18.5,26.3"/>
		<path class="st3" d="M226.7,212.7l25.6,33.3"/>
		<path class="st3" d="M205.6,175.3c0,0,23.6,19.7,18.5,26.3"/>
		<path class="st3" d="M215.4,169.7c0,0,15.4,17.7,10.8,33.9"/>
		<path class="st3" d="M263.4,196c3.1-10.3-12.1-30.5-12.1-30.5l-35.9,4.2"/>
		<path class="st3" d="M228.4,208.3c0,0,13-2.1,27.3,29"/>
		<path class="st3" d="M228.4,208.3l35.1-12.3c0,0,10-0.7,23.5,23.9"/>
		<path class="st3" d="M228.9,209c0,0,9.3-0.2,24.9,33.9"/>
		<path class="st3" d="M285.1,226.1l-31.3,16.8c0,0-0.2,1.9-1.6,3.1l33.4-18.6c0,0,0-3.5-0.9-3.9"/>
		<path class="st3" d="M255.6,237.3l32.2-16.4"/>
		<path class="st3" d="M205.6,175.3l11.7-2.2"/>
		<path class="st3" d="M205.6,175.3l11.7-2.2"/>
		<path class="st3" d="M218.2,173.8l-12.6,1.5"/>
		<path class="st3" d="M205.9,175.3l-3.1,2.6"/>
		<path class="st3" d="M235.3,216.6c0,0,5.8,6.9,6.2,9.5"/>
		<path class="st3" d="M223.4,202.4c0,0-0.8-5.8-4.6-9.7"/>
		<path class="st3" d="M223.7,199.6c0,0-0.9-7.4-8-11.6"/>
		<path class="st4" d="M285.8,230.7c-1.5,1.3-3.1,2.1-4.8,3c-0.8,0.5-1.7,0.9-2.5,1.3c-0.4,0.3-0.9,0.5-1.3,0.7
			c-0.3,0.1-0.6,0.4-1,0.4h0c-0.1,0.1-0.2,0.2-0.3,0.3c-0.2,0.3-0.6,0.3-0.9,0.1c0,0.1-0.1,0.2-0.2,0.3c-2.5,2-5.3,3.6-8.2,4.8
			c-0.1,0.1-0.3,0.2-0.5,0.3c0,0,0-0.1,0-0.1c-0.1,0-0.1,0-0.2,0.1c-0.1,0-0.1,0-0.1,0c-3.2,2.8-6.8,5.2-10.8,7
			c-0.2,0.1-0.3,0.1-0.5,0c-0.3,0.2-0.7,0.5-1,0.7c-0.5,0.3-1.2,0.8-1.9,0.6c-0.6-0.2-1-1-1.4-1.5c-0.6-0.9-1.2-1.8-1.8-2.7
			c-0.1-0.1-0.1-0.1-0.2-0.2c0,0,0,0,0.1,0c0,0,0,0,0,0c0,0-0.1-0.1-0.1-0.1c-0.8-0.8-1.4-1.8-2.1-2.8c-0.9-1.2-1.9-2.3-2.8-3.4
			c-1.3-1.6-2.7-3.1-3.4-4.9c-0.5-0.7-0.9-1.4-1.3-2.1c-0.7-1-1.5-1.9-2.6-2.7c-0.3-0.2-0.4-0.6-0.3-1c-0.2,0-0.3-0.1-0.4-0.2
			c-1.5-0.6-2.7-2.6-3.7-3.8c-2.3-2.8-4.8-5.5-6.3-8.9c-0.1-0.1-0.2-0.1-0.4-0.2c-0.1-0.1-0.2-0.2-0.2-0.4c0,0,0,0,0,0
			c-3.2-1.4-7.5-5.4-6.4-9.3c0-0.1,0-0.1,0.1-0.2c0-0.1,0.1-0.2,0.1-0.3c0-0.1,0.1-0.1,0.1-0.2c-0.2-0.2-0.3-0.5-0.5-0.7
			c-0.6-0.7-1.2-1.5-1.8-2.2c0,0,0.1,0,0.1-0.1c-0.1-0.2-0.1-0.4,0-0.6c-2.1-2.2-3.8-4.6-5.3-7.1c-0.4-0.6-0.7-1.2-1.1-1.8
			c-0.1,0-0.2-0.1-0.3-0.2c-0.1-0.1-0.2-0.3-0.3-0.4c-0.1,0-0.1,0.1-0.2,0.1c-0.3-0.5-0.7-1-1-1.5c-3.1-3.8-6.2-7.7-8.8-11.8
			c0,0,0,0,0,0c0,0,0,0,0,0c0-0.1-0.1-0.1-0.1-0.2c-0.2-0.3-0.1-0.6,0.2-0.8c-0.5-0.6-1-1.1-1.5-1.7c-0.4-0.4-0.2-1.4,0.5-1.3
			c0.6,0.1,1.1,0.1,1.7,0.1c1-0.4,2.1-0.6,3.3-0.6c0.3,0,0.5,0.1,0.6,0.3c0.2-0.1,0.5-0.1,0.7-0.2c0.9-0.4,1.3,1.1,0.2,1.3
			c0,0-0.1,0-0.1,0c0,0.1-0.1,0.2-0.2,0.3c0,0-0.1,0.1-0.1,0.1c0,0.1,0.1,0.1,0.1,0.2c-0.2,0-0.3,0.1-0.5,0.1
			c-0.4,0.4-0.9,0.8-1.3,1.1c1.5,2,2.9,4,4.4,6.1c0,0,0,0,0.1,0c0,0,0,0,0,0c0,0.1,0.1,0.1,0.1,0.2c0.1,0.2,0.1,0.5-0.1,0.8
			c2.2,2.6,4.2,5.3,6,8.2c0,0,0,0,0,0c0.3,0.5,0.6,1,1,1.6c0.6,0.8,1.1,1.6,1.7,2.4c2.4,2.3,4,5.1,5.7,7.8c0,0,0,0.1,0.1,0.1
			c2.2,0.3,5,1.2,4.9,4c0,0.5-0.2,0.9-0.4,1.3c0.1,0.4,0.1,0.8,0.1,1.2c0.2,0.2,0.3,0.5,0.4,0.7c0.1,0.3,0.2,0.6,0.2,0.9
			c0.2,0.2,0.3,0.4,0.4,0.6c3.5,4.5,7,8.9,10.5,13.2c0.2,0.2,0.3,0.4,0.2,0.7c0,0,0,0.1,0,0.1c0.5-0.1,1.1,0.4,0.9,1
			c0.2,0,0.4,0.2,0.5,0.4c2,2.8,4.1,5.6,6.3,8.3c0.6,0.6,1.2,1.3,1.7,1.9c0,0-0.1,0.1-0.1,0.1c0,0,0.1,0.1,0.1,0.1
			c0.1,0.2,0.2,0.3,0.2,0.5v0c1.3,1.9,2.7,3.7,4.3,5.4c0,0-0.1,0.1-0.1,0.1c0,0,0,0,0,0.1c0.1,0.1,0.1,0.3,0.1,0.4
			c0.1,0.2,0.3,0.3,0.4,0.5c1-1,2.3-1.8,3.7-2.3c0,0,0.1-0.1,0.1-0.1c0,0,0,0,0,0c0.1,0,0.2-0.1,0.4-0.1c0.1,0,0.1,0,0.2,0
			c0.2-0.5,0.7-0.8,1.2-1c2.4-1.3,4.8-2.5,7.2-3.8c0.3-0.2,0.5-0.3,0.8-0.5c1.4-1.3,4.8-3.9,7.3-3.6c0-0.2,0.1-0.3,0.3-0.4
			c0.5-0.2,1-0.5,1.5-0.6c0.1-0.3,0.4-0.6,0.7-0.8c0.6-0.5,1.4-0.7,2.1-1s1.5-0.6,2.3-1c1.5-0.7,3-1.6,4.4-2.5
			c0.7-0.4,1.3,0.4,1.1,1C285.9,229.6,286.2,230.3,285.8,230.7z"/>
		<path class="st4" d="M218.2,205.8c0,0.1,0,0.1-0.1,0.2c0-0.1,0-0.1,0-0.2H218.2z"/>
		<path class="st4" d="M222.8,210.8C222.8,210.8,222.8,210.8,222.8,210.8C222.8,210.8,222.8,210.8,222.8,210.8L222.8,210.8z"/>
		<path class="st4" d="M225.6,214.5C225.6,214.5,225.6,214.5,225.6,214.5C225.6,214.5,225.6,214.5,225.6,214.5
			C225.6,214.5,225.6,214.5,225.6,214.5z"/>
		<path class="st2" d="M285,228l1.1,2.7"/>
		<path class="st3" d="M221.6,205.5c0,0,5.1-0.2,4.6,6.2"/>
		<path class="st3" d="M220,205.4c0,0-2.6,4.6,5.4,8.5"/>
	</g>
	<g id="book5">
		<path class="st5" d="M101.7,76.9c-0.1,0.3-20.9,56.1-20.9,56.1s-1.4-0.8-2-1.1c-0.9-0.5-2.6-1.3-2.1-2.8
			c2.9-8.7,5.8-17.4,8.8-26.1c1.6-4.4,3.1-8.8,4.8-13.2c1.6-4.4,3.4-8.7,4.9-13.1c0.2-0.5,1.9-4.9,1.9-5.1
			C97.3,71.4,98.1,73.8,101.7,76.9z"/>
		<path class="st6" d="M119.9,142.2l-37.3-10L102.4,78l37.3,10L119.9,142.2z"/>
		<path class="st7" d="M97.8,69.1L140.1,80l-1,2.2"/>
		<path class="st7" d="M76.4,129.2l21.5-60.5c0,0-1.9,4,4,7.9"/>
		<path class="st7" d="M76.4,128.9c0,0,0.8,2.8,4.9,4.2"/>
		<path class="st8" d="M104.4,74.9l20.7,5.2"/>
		<path class="st8" d="M115.6,76.8l9.9,2.4"/>
		<path class="st8" d="M126.4,77.4l12.4,3c0,0-1.7,3.6,1,4.9"/>
		<path class="st7" d="M101.9,76.6l39.3,10.6"/>
		<path class="st7" d="M81.2,133.1l39.2,10.6"/>
		<path class="st7" d="M81.2,133.1l20.7-56.5"/>
		<path class="st5" d="M98.1,73.5C98.1,73.5,98.1,73.6,98.1,73.5C98.1,73.6,98.1,73.5,98.1,73.5C98.1,73.5,98.1,73.5,98.1,73.5z"/>
		<path class="st8" d="M98.5,71.1c0,0,2.4,4.4,4.6,4.4"/>
		<path class="st8" d="M122.5,81.1l17.6,4.9"/>
		<path class="st7" d="M141.2,87.1l-20.8,56.5"/>
	</g>
	<g id="book3">
		<path class="st6" d="M192.5,544.7l34.4-9.2l-18.3-50l-34.4,9.2L192.5,544.7z"/>
		<path class="st7" d="M213,477.2l-39.1,10.1l0.4,0.8"/>
		<path class="st7" d="M232.9,533.1L213,477.2c0,0,1.6,3.3-3.9,6.9"/>
		<path class="st7" d="M232.7,532.6c0,0-1.2,3.7-4.3,3.9"/>
		<path class="st8" d="M206.9,482.6l-19.1,4.8"/>
		<path class="st8" d="M196.5,484.4l-9.1,2.2"/>
		<path class="st8" d="M186.6,485l-11.4,2.8c0,0,1.6,3.3-0.9,4.5"/>
		<path class="st7" d="M209.1,484.1l-36.2,9.7"/>
		<path class="st7" d="M172.9,493.9l19.2,52.1"/>
		<path class="st7" d="M228.3,536.3l-36.2,9.7"/>
		<path class="st7" d="M228.3,536.3l-19.2-52.1"/>
		<path class="st5" d="M230.3,536.1c-1.6,0.4-2.6-0.7-3.1-2.2c-2.7-8.1-5.9-16-8.7-24.1c-1.4-4.1-2.8-8.1-4.3-12.2
			c-1.4-3.9-3-7.8-4.3-11.8c0-0.1-0.1-0.3-0.1-0.4c-0.1,0-0.2,0-0.3-0.1c-0.1-0.1-0.1-0.2-0.1-0.3v-0.7c0-0.2,0-0.5,0.2-0.7
			c0.1-0.1,0.1-0.1,0.3-0.1c0.1-0.1,0.2,0,0.3,0c0.3-0.5,0.7-1,1.2-1.3c0,0,0,0,0,0c0-0.2,0.1-0.5,0.3-0.5c0.2,0,0.4-0.1,0.6-0.1
			c0-0.2,0-0.4,0.2-0.4c0,0,0.1,0,0.1,0c0-0.1,0-0.1,0.1-0.2c-0.1-0.1,0-0.3,0.1-0.4c-0.1-0.2-0.2-0.4,0.1-0.6c0,0,0-0.1,0-0.1
			c0.1-0.2,0.3-0.4,0.5-0.3c0.2,0.1,0.4,0.2,0.5,0.4c0,0.1,0,0.2,0,0.3c0.1,0.1,0.2,0.2,0.2,0.3c0.4,0.1,0.4,0.6,0,0.7v0
			c0.4,0.2,0.8,0.6,1,1c0.1,0.2,0,0.4-0.1,0.5c0.4,0.3,0.7,0.8,0.8,1.3c1.3,4.1,2.9,8.1,4.4,12.1c1.4,4,2.8,8,4.2,12
			c2.8,8,5.4,16.1,8.1,24.2C232.9,534,231.8,535.7,230.3,536.1z"/>
		<path class="st8" d="M212.3,479.1c0,0-2.2,4.1-4.2,4"/>
		<path class="st8" d="M190.2,488.4l-16.2,4.5"/>
	</g>
	<g id="book1">
		<path class="st9" d="M92.8,291.9c0,0.4-0.2,0.8-0.4,1.1c0.7,0.2,1.4,0.4,2.1,0.6c0.2-2,2.4-2.9,4.1-3c2.2-0.1,4.4,0.8,6.5,1.5
			c4.5,1.4,9,2.9,13.5,4.4c9,3,17.9,6.2,26.8,9.5c1.4,0.5,1.9-1.6,0.6-2.2c-3-1.2-6.1-2.5-9.1-3.7c-0.2,0.7-0.4,1.5-0.6,2.2
			c1.7,0.5,3.3,1.1,4.9,1.8c0.8,0.4,1.5,0.7,2.2,1.2c0.2,0.1,0.9,0.4,1,0.6s-0.1,0.9-0.2,1.1c-0.7,3.6-1.5,7.2-2.2,10.8
			c-1.4,7.2-2.9,14.4-4.3,21.5c-0.3,1.4,1.8,2,2.2,0.6c0.4-1.5,0.7-3,1.1-4.6c0.3-1.4-1.8-2-2.2-0.6c-1,3.6-1.7,7.2-2.2,10.8
			c-0.2,1.1,1.5,2.1,2.1,0.9c0.9-2,1.2-4,0.9-6.2c-0.1-1.1-2-1.1-2.2,0c-1,5.9-1.9,11.9-2.9,17.8c-0.2,1.4,1.9,2,2.2,0.6
			c1-5.9,1.9-11.9,2.9-17.8c-0.7,0-1.4,0-2.2,0c0.2,1.5,0,3.1-0.7,4.5c0.7,0.3,1.4,0.6,2.1,0.9c0.5-3.7,1.2-7.2,2.2-10.8
			c-0.7-0.2-1.5-0.4-2.2-0.6c-0.4,1.5-0.7,3-1.1,4.6c0.7,0.2,1.4,0.4,2.2,0.6c1.6-8.1,3.2-16.2,4.9-24.2c0.4-2,0.8-4.1,1.2-6.1
			c0.3-1.3,1.2-3.5,0.4-4.8c-0.4-0.6-1.1-1-1.7-1.3c-0.8-0.4-1.6-0.9-2.5-1.3c-1.8-0.8-3.6-1.5-5.4-2.1c-1.4-0.4-1.9,1.6-0.6,2.2
			c3,1.2,6.1,2.5,9.1,3.7c0.2-0.7,0.4-1.5,0.6-2.2c-7.7-2.9-15.5-5.7-23.3-8.4c-3.9-1.3-7.9-2.7-11.8-3.9c-1.9-0.6-3.9-1.2-5.8-1.9
			c-1.8-0.6-3.6-1.2-5.5-1.3c-3.4-0.2-6.9,1.6-7.3,5.2c-0.1,1.2,1.6,1.4,2.1,0.6c0.5-0.7,0.7-1.4,0.7-2.3
			C95.1,290.4,92.9,290.5,92.8,291.9z"/>
		<path class="st10" d="M92.6,291.2c0,0,3.9-2.7,5.8-2.4c0,0,6.3,0.1,48.8,15"/>
		<path class="st10" d="M92.7,291.2L83.2,339"/>
		<path class="st10" d="M94.3,292.9l-8.7,46.5"/>
		<path class="st10" d="M83.2,339l2.4,0.4"/>
		<path class="st10" d="M147.1,303.5l-10.7,56.6"/>
		<path class="st11" d="M96.9,293.6l23.7,21.3"/>
		<path class="st11" d="M125.9,312.5l-11,53.9"/>
		<path class="st11" d="M120.5,314.9L110,367.7"/>
		<path class="st11" d="M102.4,294.4l23.8,17.9"/>
		<path class="st11" d="M99.2,290.4l44.7,15.7"/>
		<path class="st11" d="M143.9,306.1l-10.5,54"/>
		<path class="st11" d="M129.6,311.9l-9.9,53.6"/>
		<path class="st11" d="M133.9,312.6l-10.2,52.5"/>
		<path class="st11" d="M136.5,312.1l-9.7,52.2"/>
		<path class="st11" d="M140.9,309.5L130.2,362"/>
		<path class="st11" d="M102.2,292.4l38.6,17.1"/>
		<path class="st11" d="M129.6,311.9l-22.4-14.7"/>
		<path class="st11" d="M133.9,312.6l-25.6-15.8"/>
		<path class="st11" d="M136.5,312.1L108,295.8"/>
		<path class="st11" d="M114.9,366.3L113,365"/>
		<path class="st11" d="M119.7,365.5l-3.9-2.6"/>
		<path class="st11" d="M110,367.7l-0.4-0.6"/>
		<path class="st11" d="M123.7,365.2l-3.5-2.6"/>
		<path class="st11" d="M126.8,364.3l-2.2-1.4"/>
		<path class="st11" d="M130.1,361.9l-2.2-1.4"/>
		<path class="st11" d="M123.5,313.3l-10.8,52.9"/>
		<path class="st11" d="M113,366l-2-1"/>
		<path class="st10" d="M136.1,359.8l-1.9-1.6"/>
		<path class="st11" d="M134.1,347.5l-2.3,13.3"/>
		<path class="st11" d="M142.1,307.7l-9.3,52.7"/>
		<path class="st11" d="M127.5,301.7l14.6,6"/>
		<path class="st10" d="M119.9,315.8l-25.4-22.6"/>
		<path class="st11" d="M123.4,313.4L98.8,293"/>
		<path class="st10" d="M94.2,293.6L85.7,339l22.6,29.9l11.4-53.3L94.2,293.6z"/>
		<path class="st9" d="M94,294l-8,45l22.1,29.5L120,316L94,294z"/>
		<path class="st10" d="M92.2,293.6L83,339l2.6,0.4l22.6,29.9"/>
		<path class="st9" d="M94,294.4l-1.9-0.4l-8.7,44.2l2.1,1.3L94,294.4z"/>
		<path class="st11" d="M95,292c0,0,1.3-3.1,4-1.6"/>
	</g>
	<g id="book4">
		<path class="st9" d="M186.6,713.2l14.8-12.5l1-15.5l-18.1,13.9L186.6,713.2z"/>
		<path class="st9" d="M187.4,713.4l14.8-11.9l-0.6-0.8l-14.6,12C187,712.7,187.4,713.1,187.4,713.4z"/>
		<path class="st9" d="M184.7,713c-1.4-1-2.2-2.9-3.1-4.3c-0.9-1.4-1.8-2.9-2.7-4.3c-1.8-3-3.5-6-5.2-9c-0.3-0.5-1.1-0.1-0.8,0.5
			c0.6,1.2,1.3,2.4,1.9,3.6c0.3-0.2,0.5-0.3,0.8-0.5c-0.4-0.6-0.7-1.2-1-1.8c-0.2-0.3-0.4-0.7-0.5-1.1c-0.1-0.5-0.1-0.3,0.1-0.7
			c0.4-0.5,1.2-1,1.7-1.4c0.6-0.5,1.3-1,1.9-1.5c2.4-1.9,4.8-3.9,7.2-5.8c0.4-0.3-0.1-1-0.5-0.7c-0.5,0.4-1.1,0.8-1.6,1.2
			c-0.5,0.3,0,1.1,0.4,0.8c1.3-0.9,2.5-1.9,3.7-2.9c0.4-0.4-0.1-0.9-0.6-0.7c-0.8,0.4-1.4,0.9-1.8,1.7c-0.3,0.5,0.3,0.9,0.7,0.5
			c1.9-1.6,3.8-3.3,5.7-4.9c0.4-0.4-0.2-1-0.6-0.6c-1.9,1.6-3.8,3.3-5.7,4.9c0.2,0.2,0.5,0.4,0.7,0.6c0.4-0.6,0.9-1,1.5-1.3
			c-0.2-0.2-0.4-0.5-0.6-0.7c-1.1,1-2.3,1.9-3.5,2.8c0.1,0.3,0.3,0.5,0.4,0.8c0.5-0.4,1.1-0.8,1.6-1.2c-0.2-0.2-0.4-0.5-0.5-0.7
			c-2.9,2.3-5.9,4.7-8.8,7c-0.7,0.6-1.4,1.1-2.1,1.7c-0.3,0.2-0.5,0.4-0.6,0.8c-0.1,0.5,0.4,1.2,0.6,1.7c0.4,0.8,0.8,1.5,1.2,2.2
			c0.3,0.5,1.1,0.1,0.8-0.5c-0.6-1.2-1.3-2.4-1.9-3.6c-0.3,0.2-0.5,0.3-0.8,0.5c1.9,3.3,3.8,6.6,5.8,9.8c1,1.6,1.9,3.2,2.9,4.7
			c0.8,1.2,1.5,2.5,2.7,3.4C184.7,714.1,185.1,713.3,184.7,713z"/>
		<path class="st9" d="M186.6,713.9l0.1-0.1c0,0,0.1,0,0,0c0,0,0.1,0,0.1-0.1h0.1c0,0,0.1,0,0,0c0,0,0,0,0.1,0h0.1
			c-0.1-0.2-0.2-0.4-0.4-0.6l-0.1,0.1c-0.1,0,0.1,0,0,0c0,0,0,0-0.1,0l-0.1,0.1c0,0,0,0-0.1,0c0,0,0.1,0,0,0s-0.2,0.1-0.3,0.1h-0.1
			c0.1,0,0,0,0,0c-0.1,0-0.1,0-0.2,0c-0.1,0-0.2,0-0.3,0c0,0,0.1,0,0,0h-0.1c-0.1,0-0.1,0-0.2,0H185h-0.1c0,0-0.1,0,0,0h-0.1
			c0,0,0,0-0.1,0s-0.1-0.1-0.2-0.1c-0.2-0.1-0.4,0-0.5,0.1c-0.1,0.2,0,0.4,0.1,0.5c0.9,0.5,2.2,0.6,2.9-0.2c0.3-0.3,0-0.7-0.4-0.6
			c-0.3,0.1-0.6,0.2-0.8,0.5c-0.1,0.1-0.1,0.4,0,0.5C186.2,714,186.4,714,186.6,713.9z"/>
		<path class="st11" d="M184,713.4c0,0-2-1.7-11.6-17.8"/>
		<path class="st11" d="M186.5,714.2c0,0-2-0.2-2.5-0.8"/>
		<path class="st11" d="M202.3,701.4l-15.8,12.7"/>
		<path class="st11" d="M172.4,695.7l18.6-15.2"/>
		<path class="st12" d="M185.8,712.2L184,699"/>
		<path class="st12" d="M181.6,698.5l17.9-14.3"/>
		<path class="st12" d="M184,699.1l17.5-14"/>
		<path class="st12" d="M184.2,710.5l-2.8-12.1"/>
		<path class="st12" d="M184.2,712.7l-10.1-17"/>
		<path class="st12" d="M174.1,695.7l17.8-14.4"/>
		<path class="st12" d="M180.2,697.6l17.5-14.5"/>
		<path class="st12" d="M179.1,696.2l17.4-14"/>
		<path class="st12" d="M178.1,695.7l17.1-14.1"/>
		<path class="st12" d="M176,695.4l17.5-13.9"/>
		<path class="st12" d="M183.8,711.2l-7.8-15.8"/>
		<path class="st12" d="M180.2,697.6l3.2,10.7"/>
		<path class="st12" d="M179.1,696.2l3.9,11.9"/>
		<path class="st12" d="M178.1,695.7l4.7,12.8"/>
		<path class="st12" d="M199.6,684.2l0.1,1.1"/>
		<path class="st12" d="M197.8,683.2l0.5,1.9"/>
		<path class="st12" d="M201.5,685.1l-0.1,0.3"/>
		<path class="st12" d="M196.4,682.2l0.4,1.8"/>
		<path class="st12" d="M195.2,681.7l0.3,1"/>
		<path class="st12" d="M193.5,681.5l0.3,1"/>
		<path class="st12" d="M182.6,698.8l17.6-14"/>
		<path class="st12" d="M200.2,684.8l0.2,0.9"/>
		<path class="st11" d="M191,680.6l0.2,1"/>
		<path class="st12" d="M188.3,685.1l4.3-3.6"/>
		<path class="st12" d="M175.1,695.6l17.1-14.3"/>
		<path class="st12" d="M178.2,701.5l-3.1-5.8"/>
		<path class="st12" d="M182.6,698.8l2.4,13.1"/>
		<path class="st11" d="M186.7,713l14.9-12.2l0.8-15.6l-17.9,14L186.7,713z"/>
		<path class="st12" d="M186,713.3c0,0-1.3,0.6-1.7-0.6"/>
		<path class="st11" d="M202.2,701.6l-0.7-0.8"/>
	</g>
</g>
<g id="branches">
	<path class="st1" d="M99,68c0.7-10.2,7.9-18.2,14.9-25c7.5-7.2,14.9-14.7,19.6-24.1c2.8-5.6,4.8-11.6,5.9-17.7
		c0.2-0.9-1.3-1.4-1.5-0.4c-2,11.2-7,21.4-14.3,30c-6.5,7.6-14.7,13.8-20.5,22.1c-3.1,4.5-5.3,9.6-5.7,15.1C97.5,69,99,69,99,68z"/>
	<path class="st1" d="M178.7,123.4c-2.9,8.6-6.9,16.8-11.8,24.4c-0.5,0.8-1,1.6-1.5,2.4c-5.7,8.7-12.4,16.8-19.2,24.5
		c-1.6,1.8-3.2,3.5-4.8,5.3c-0.4,0.5-0.8,0.9-1.3,1.4c-0.1,0.1-0.2,0.2-0.3,0.3c-1.4,1.5-2.8,3-4.2,4.5c-0.3,0.3-0.6,0.6-0.9,1
		c-3.4,3.5-6.9,6.9-10,10.6c-7.1,8.5-12.7,18.2-17,28.4c-8.3,20-11.3,41.7-12,63.2c0,1-1.5,1-1.5,0c0.1-2.6,0.2-5.2,0.3-7.8
		c1.3-21.2,5.2-42.6,14.4-61.9c4.5-9.5,10.4-18.8,17.7-26.4c3.9-4.1,7.9-8.2,11.8-12.3c0.5-0.5,0.9-1,1.4-1.5
		c0.2-0.2,0.3-0.3,0.5-0.5c0.3-0.3,0.5-0.6,0.8-0.9c2.4-2.6,4.7-5.2,7-7.8c6.2-7.2,12.2-14.8,17.4-22.9c0.5-0.8,1-1.6,1.5-2.4
		c5.2-8.6,9.5-17.8,12-27.5c1.3-5,2.1-10.2,2.4-15.4c0.1-2.6,0.2-5.3,0-7.9c-0.1-2.9-1.1-5.7-2-8.5c-0.3-1.1-0.7-2.2-1.1-3.2
		c-0.2-0.6-0.4-1.2-0.7-1.7c-3.4-8.9-8-17.2-13.2-25.1c-1.8-2.7-3.7-5.4-5.6-8c-0.3-0.4-0.6-0.8-0.9-1.3c-1.2-1.6-2.4-3.2-3.7-4.8
		c-1.2-1.5-2.4-3.1-3.6-4.7c-0.5-0.6-1-1.2-1.5-1.9c-1.8-2.3-3.7-4.5-5.7-6.5c-0.2-0.2-0.5-0.5-0.7-0.7c-0.4-0.4-0.8-0.8-1.2-1.2
		c-2.6-2.8-5.1-5.8-7.2-9c-0.4-0.5-0.7-1-1-1.6c-2.7-4.4-4.8-9.2-5.6-14.5c-0.2-1,1.3-1.3,1.5-0.4c0.4,2.6,1.1,5.1,2,7.5
		c0.8,2,1.8,3.9,2.8,5.8c0.3,0.5,0.7,1.1,1,1.6c1.5,2.4,3.2,4.6,5,6.7c0.6,0.8,1.3,1.5,2,2.2c0.4,0.4,0.8,0.8,1.2,1.2
		c0.8,0.9,1.7,1.8,2.5,2.7c1.2,1.3,2.3,2.7,3.4,4.1c0.5,0.6,1,1.2,1.5,1.8c0.2,0.2,0.4,0.5,0.6,0.8c2.6,3.2,5.1,6.4,7.6,9.7
		c0.3,0.4,0.6,0.8,0.9,1.3c3.9,5.3,7.6,10.7,10.8,16.4c2.8,4.8,5.3,9.8,7.4,14.9c0.2,0.5,0.5,1.1,0.7,1.6c0.1,0.1,0.1,0.3,0.2,0.4
		c0.2,0.4,0.3,0.8,0.5,1.3c0.6,1.5,1.1,3.1,1.6,4.6c0.3,1,0.6,1.9,0.9,2.9l0,0c0.5,1.6,0.9,3.3,1,5
		C183.4,103.5,181.9,113.7,178.7,123.4z"/>
	<path class="st1" d="M219.2,210.8c-12.1-2.4-25-7.9-32.2-18.4c-3.8-5.5-5.6-11.9-5.2-18.6c0.5-7.9,2.9-15.5,6-22.7
		c3-7.1,6.7-13.9,9.9-20.9c1.6-3.6,3.2-7.2,4.3-11c1.2-4.1,2-8.2,2.5-12.4c1-8.7,0.7-17.4-0.9-26c-1.5-8.3-3.7-16.6-5.9-24.8
		c-4.3-16.2-9-32.6-8.8-49.5c0-2.1,0.1-4.2,0.3-6.2c0.1-1-1.4-1-1.5,0c-1.4,17,2.6,33.7,6.9,50c2.2,8.3,4.5,16.6,6.3,25.1
		c0.9,4.3,1.9,8.7,2.3,13.1c0.4,4.5,0.4,9.1,0.1,13.7c-0.6,8.8-2.6,17.3-6.1,25.4c-3.2,7.2-6.9,14.1-10.1,21.3
		c-3.1,7-5.7,14.2-6.6,21.8c-0.8,6.9,0,13.6,3.4,19.7c6.1,11.1,18.4,17.6,30.2,20.8c1.5,0.4,3,0.8,4.6,1.1
		C219.8,212.4,220.2,211,219.2,210.8z"/>
	<path class="st1" d="M174.3,0.9c0.3,10.8,1.8,22.2,8.1,31.3c5.6,8,14.5,12.1,24,13.4c19.5,2.6,41.7,0.2,58.6,12.2
		c9.8,6.9,12.9,18.4,14.6,29.6c0.1,0.9,1.6,0.6,1.4-0.4c-1.4-9.5-3.8-19.5-10.7-26.6c-6.8-7.1-16.8-10.6-26.3-12.4
		c-9.9-1.9-20-2.2-30-3c-9.8-0.8-19.8-2.4-27.1-9.6c-9-8.9-10.9-22.3-11.2-34.4C175.8-0.1,174.3-0.1,174.3,0.9z"/>
	<path class="st1" d="M165.5,1.3c1.9,6.1,2.6,12.4,2.1,18.7c-0.2,3.2-0.8,6.4-1.6,9.6c-0.8,3.1-1.7,6.3-3.2,9.1
		c-5.2,9.8-13.6,17.1-22.2,23.8c-4.9,3.8-9.8,7.6-14.5,11.6c-0.7,0.6,0.3,1.7,1.1,1.1c8.5-7.5,18.1-13.7,26.2-21.7
		c3.9-3.9,7.4-8.2,10.1-13c3.1-5.5,4.7-12.1,5.4-18.3c0.8-7.2,0.2-14.4-2-21.3C166.7,0,165.2,0.3,165.5,1.3z"/>
	<path class="st1" d="M96.8,137.7c-16.9,12.9-29,31.8-33.9,52.5c-1.3,5.3-2,10.8-2.3,16.3c-0.3,6.8-0.3,13.6-1,20.3
		c-0.6,6.3-1.4,12.7-2.6,19c-1,5.5-2.5,11.2-6.3,15.6c-4,4.6-10.1,7.4-16.2,7.1c-6.3-0.2-12.4-3.6-16-8.8c-0.6-0.8-1.9,0-1.3,0.8
		c6.3,9,18.3,12,28,7c4.9-2.5,8.4-6.7,10.5-11.7c2.3-5.4,3-11.4,3.8-17.2c0.9-6.7,1.8-13.3,2-20.1c0.3-6.6,0.2-13.3,1.1-19.9
		c1.5-10.9,5.1-21.6,10.4-31.2c6-11,14.3-20.8,24.2-28.4C98.3,138.4,97.5,137.1,96.8,137.7z"/>
	<path class="st1" d="M182.7,267.2c4.6,10.9,9.5,22,17.1,31.2c3.8,4.6,8.3,8.4,13.4,11.5c5.6,3.4,11.7,5.9,17.5,9
		c10.7,5.6,20.6,13.3,27.5,23.4c7.1,10.5,10.9,23.6,8.6,36.2c-0.6,3.2-1.4,6.6-3.2,9.3c-0.9,1.3-2,2.5-3.4,3.1
		c-1.9,0.9-3.9,0.6-5.9,0.1c-6.1-1.6-15.3-6.2-12.9-14c0.3-0.9-1.2-1.3-1.5-0.4c-1.9,6.2,3.2,11.4,8.4,13.8c2.9,1.3,6.3,2.7,9.5,2.5
		c2.8-0.2,5.1-1.7,6.7-4c1.7-2.3,2.5-5.1,3.2-7.9c0.8-3.2,1.2-6.5,1.2-9.7c0.1-6.7-1.3-13.3-3.9-19.5c-4.8-11.8-13.8-21.5-24.2-28.6
		c-5.5-3.8-11.4-6.7-17.3-9.6c-6.2-3-12.4-6.2-17.6-10.9c-10.7-9.7-16.5-23.3-22-36.3C183.6,265.5,182.3,266.3,182.7,267.2z"/>
	<path class="st1" d="M212.5,477.5c0,1-1.5,1-1.5,0c-0.1-8.3-1.7-16.4-3.8-24.4c-1.8-6.9-4-13.8-5.8-20.7c-2-7.2-3.5-14.4-4.4-21.8
		c-0.5-3.7-0.8-7.5-1.1-11.2c-0.3-3.8-0.8-7.6-0.6-11.5c0.3-6.9,2.2-13.8,1.4-20.6c-0.1-0.1-0.2-0.3-0.2-0.5s0-0.5,0-0.7
		c0-0.3-0.1-0.5-0.1-0.8c0-0.2,0-0.5,0.1-0.6c0-2.4-0.1-4.9-0.1-7.3c-0.4-25.3-1.5-50.9-8.8-75.3c-3.7-12.5-9.1-24.4-16.2-35.4
		c-7.2-11.1-15.6-21.5-21.6-33.4c-11.2-22.3-13.8-48.4-6.3-72.3c7.7-24.6,24.2-45.1,38-66.4C195.7,53,209.2,27.2,204,0.5
		c-0.2-0.9,1.3-1.3,1.4-0.4c0.6,3,1,6,1.1,9c1.3,26.1-13,50.2-27,71.2c-14.3,21.3-30.7,42.7-36.6,68.2c-2.9,12.6-3.1,25.7-0.7,38.3
		c2.4,12.9,7.6,24.9,14.6,36c7.1,11.2,15.5,21.6,21.7,33.3c5.9,11.2,10.2,23.3,13,35.6c5.6,24.4,6,49.5,6.3,74.4
		c1.2,7.9-1.3,15.7-1.3,23.7c0,3.8,0.4,7.7,0.8,11.5c0.4,4,0.8,8,1.3,12c1,7.4,2.8,14.6,4.8,21.8C207.5,449.1,212.2,463,212.5,477.5
		z"/>
	<path class="st1" d="M190.3,737c-1.1,6-4.2,11.6-8.8,15.5c-5.2,4.4-11.6,5.8-18.3,5.1c-7.7-0.8-15.3-2.9-22.7-5.2s-17.3-6.2-21.9-9
		c-3-2.1-5.6-4.7-7.9-7.6C97.4,719,94.8,695.6,96.5,675c2.1-25,10.3-49.2,18.6-72.7c16.7-47.6,36.8-94.1,43.3-144.5
		c6.7-52.3,1.2-105.3-9-156.8c-2.4-12.2-4.9-24.4-5.2-36.9c-0.3-12.3,1.6-24.6,4.4-36.6c5.9-25.2,15.7-49.8,16.9-75.9
		c0.6-13.2-1.6-25.9-5.3-38.5c-3.4-11.8-7.4-23.3-9.5-35.5c-4.3-25.5-1.3-51.5,1.7-77c0.1-0.9,1.6-1,1.5,0
		c-0.7,6.3-1.5,12.7-2.1,19.1c-2.5,25.9-2.5,51.4,4.9,76.6c3.4,11.7,7.4,23.2,9.3,35.2c1.8,11.8,1.2,23.7-0.6,35.5
		c-3.9,24.9-13.6,48.4-17.8,73.2c-2.3,13.5-2.4,27-0.3,40.6c1.8,12.4,4.7,24.7,6.9,37.1c8.8,49.8,12.3,101.2,4.2,151.3
		c-7.9,48.6-28,93.7-43.9,140c-8.3,24.2-16.4,49.4-16.8,75.2c-0.3,20.6,4.8,47.1,23.6,59.1c0.1,0.1,0.2,0.1,0.2,0.2
		c6.9,3.1,14.1,5.8,21.4,8c3.4,1,6.9,1.9,10.4,2.7c3.6,0.8,7.3,1.7,11,2c6.5,0.5,12.6-1.2,17.3-5.8c9.8-9.4,9.3-24.2,3.7-35.7
		c-0.4-0.9,0.9-1.6,1.3-0.8C189.9,721.1,191.7,729.1,190.3,737z"/>
	<path class="st1" d="M95.9,684.6c0.2,5.1-0.3,10.3-1.6,15.3c-1.1,4.2-2.9,8.4-6.6,10.9c-0.4,0.3,0,0.9,0.4,0.6
		c3.7-2.4,5.6-6.5,6.8-10.6c1.5-5.3,2-10.8,1.9-16.2C96.6,684.1,95.9,684.1,95.9,684.6z"/>
	<path class="st1" d="M87.7,93.4c-8.3,2.8-13,11.1-15.4,19.1c-3,10.3-3.3,21.5-1.1,32c2.2,10.8,7.7,20.3,12,30.3
		c2.2,5.1,4,10.4,5.1,15.9c1.1,5.7,1.5,11.5,1.6,17.2s-0.2,11.5-0.6,17.2c-0.5,5.8-1.3,11.6-2.9,17.2c-2.7,9.2-7.5,17.7-13.4,25.2
		c-5.9,7.4-12.8,14-20,20.2c-3.7,3.2-7.4,6.2-11.2,9.2s-7.8,5.9-11,9.5c-2.9,3.3-4.9,7.2-5.2,11.7c-0.3,4.3,1,8.6,3.1,12.4
		c4.8,8.2,13.9,12.5,23,13.9c2.3,0.4,4.7,0.6,7.1,0.6c1,0,1-1.5,0-1.5c-9.4-0.3-19.6-2.8-26.1-10.1c-2.9-3.3-5-7.6-5.5-12.1
		s0.8-8.9,3.5-12.5c2.9-3.8,6.8-6.6,10.4-9.5c3.7-2.9,7.3-5.9,10.9-8.9c7.1-6,14-12.3,20-19.5c5.8-6.9,10.7-14.4,13.9-22.8
		c3.9-10.1,4.8-20.9,5.2-31.6c0.4-10.8,0.1-21.8-2.9-32.2c-2.9-10.4-8.7-19.6-12.5-29.6c-3.9-10.1-5.3-21-4.1-31.7
		c1-8.9,3.7-19.1,10.8-25.1c1.7-1.4,3.5-2.5,5.6-3.2C89,94.5,88.6,93.1,87.7,93.4z"/>
	<path class="st1" d="M146.9,5.2c-0.1,2-0.2,3.6-0.4,5.6c-0.5,5.2-1.6,10.3-3.3,15.2c-0.4-0.4-0.8-0.8-1.2-1.2
		c2.1-6.4,3-13.2,3.2-20c0-0.9,0.3-3.3,0.8-4.8c0.1-0.4,0.4-0.7,0.9-0.6c0.4,0,0.7,0.5,0.6,0.9C147,1.7,146.9,3.9,146.9,5.2z"/>
	<path class="st1" d="M143.2,26c-0.2,0.6-0.4,1.1-0.6,1.6c-0.7,1.9-1.5,3.8-2.5,5.7c-1.7,3.4-3.6,6.8-6,9.8
		c-2.5,3.1-5.7,4.6-9.6,5.2c-5.4,0.9-10.9,1.1-16.3,0.6c-0.6,0-1.2-0.1-1.9-0.2c-2.5-0.3-5.1-0.7-7.6-1.2c-8.6-1.8-17.1-4.8-26-4.9
		c-4.3,0-8.6,0.7-12.5,2.5c-3.6,1.7-6.9,4.1-9.9,6.7c-5.4,4.8-9.8,10.7-12.8,17.3c-3.1,6.6-4.9,13.8-5,21.1
		c-0.1,3.9,0.1,7.9,2.9,10.9c2.3,2.4,5.6,3.8,8.8,4.1c7.5,0.7,14.8-4.6,19.1-10.4c2.3-3.1,3.5-7.6-0.5-9.9
		c-3.7-2.2-7.9-0.4-11.2,1.6c-0.8,0.5-1.6-0.8-0.8-1.3c1.8-1.1,3.7-2,5.7-2.5c3.2-0.7,7-0.1,9.2,2.7c2.3,3,1.3,6.8-0.7,9.7
		c-4.1,6.1-11.4,11.5-19,11.7c-6.7,0.2-13.6-4-14.7-11C30.7,92,31,88,31.6,84.2c0.5-3.8,1.5-7.6,2.8-11.2C37,65.9,41,59.4,46.2,53.9
		c5.6-5.9,12.7-11,20.8-12.3c9-1.4,17.9,1.1,26.6,3.2c4.7,1.2,9.3,2,14,2.5c0.7,0.1,1.3,0.1,1.9,0.1c4.1,0.3,8.3,0.2,12.5-0.3
		c2.3-0.3,4.6-0.6,6.7-1.6c2-0.9,3.5-2.5,4.8-4.2c2.6-3.4,4.6-7.3,6.4-11.2c0.5-1.2,1-2.5,1.5-3.8c0.2-0.5,0.4-1.1,0.6-1.6
		C142.4,25.2,142.8,25.6,143.2,26z"/>
	<path class="st1" d="M178.6,80.3c5.3,13.3,10.7,26.8,19.1,38.4c7.4,10.4,17.1,19.1,29.1,23.8c6.6,2.6,13.5,4.1,20.4,6
		c6.4,1.7,12.7,3.9,18.8,6.6c11.9,5.2,22.9,12.3,32.6,20.8c4.9,4.3,9.4,8.9,13.6,13.9c4.4,5.3,8.4,11.2,10.6,17.8
		c4.5,13.3,1.4,27.9-4.6,40.2c-6.2,12.7-15.4,23.5-24,34.6c-2.1,2.8-4.3,5.6-6.2,8.4c-1.8,2.7-3.5,5.5-4.3,8.7
		c-1.6,6.5,1.6,13.1,4.4,18.8c2.6,5.4,5.9,10.7,10.6,14.5s11.1,6.3,16.8,3c2.6-1.5,4.6-3.8,6.5-6.2c2-2.6,3.8-5.5,4.7-8.6
		c1.5-5.3-0.3-11.1-5.5-13.4c-2.1-0.9-4.5-1-6.5,0.2c-0.8,0.5-0.1,1.8,0.8,1.3c2.4-1.4,5.2-0.5,7.3,1.2c2.3,1.9,3.3,4.6,3.1,7.6
		c-0.2,3.4-1.8,6.5-3.7,9.2c-1.8,2.6-3.9,5.2-6.6,7c-6,4-12.8,0.5-17.4-3.9c-4.3-4.1-7.2-9.5-9.7-14.9c-1.4-3.1-2.9-6.4-3.4-9.8
		c-0.6-3.6,0.3-7.1,2-10.3c1.6-2.9,3.6-5.5,5.5-8.1c2.1-2.8,4.2-5.5,6.4-8.3c8.2-10.4,16.6-21,22-33.2c5.1-11.6,7.6-24.9,3.9-37.3
		c-3.6-12-12.6-22.1-21.6-30.6S284.1,162,273,156.4c-5.4-2.8-11-5.1-16.8-7.1c-6.3-2.1-12.8-3.6-19.1-5.4
		c-6.5-1.8-12.9-4.1-18.6-7.6c-5.3-3.3-10-7.5-14.1-12.2c-8.9-10.2-14.9-22.4-20.1-34.8c-1.3-3.2-2.6-6.4-3.9-9.7
		C179.7,79,178.2,79.4,178.6,80.3z"/>
	<path class="st1" d="M140.1,179c-15.6,16-4.1,39.4,4.5,55.6c10.1,19,21.4,37.4,29.4,57.5c3.9,9.7,6.9,19.7,8.4,30.1
		c1.6,11,0.6,22,0.6,33.1c0,10.1,1.3,20.4,6.8,29.1c5,7.9,12.3,13.9,19.5,19.6c7.9,6.3,15.5,12.6,22.1,20.4
		c6.9,8.1,12.6,17.2,17.9,26.5c5.4,9.5,10.3,19.2,15.1,29c5.2,10.5,10,21.1,13.6,32.3c3.5,11,5.8,22.3,5.8,33.9
		c0,12.2-1.9,24.3-4.2,36.2c-3.9,20.3-11.9,43.8-33,51.9c-5.6,2.2-11.6,2.9-17.5,3.2c-5,0.3-10.1,0.3-15.1-0.2
		c-9.9-1.1-20.1-5.3-24.4-14.9c-1.8-4.1-2.5-8.8-1.1-13.1c1.6-4.8,5.6-8,10.3-9.5c7.6-2.3,25.6-2,25.7,9.3c0,2.5-1.3,4.8-3.8,5.4
		c-2.1,0.5-4.6-0.2-5.4-2.3c-0.3-0.9-1.8-0.5-1.4,0.4c1.1,2.9,4.3,4.1,7.2,3.4c3.7-0.9,5.4-4.5,4.8-8.1
		c-1.5-9.8-14.4-11.3-22.4-10.5c-8.6,0.9-16.4,6-17.2,15.1c-0.8,8.8,4.5,17.3,12,21.6c9.2,5.3,20.5,5.5,30.8,5
		c10.9-0.6,21.1-3.1,29.6-10.2c17.9-15,22-40.3,25-62.2c1.7-12.2,2.2-24.4,0.2-36.6c-2-11.9-5.9-23.3-10.6-34.3
		c-4.8-11.1-10.3-21.9-15.9-32.7c-5.2-10.1-10.8-20.1-17.3-29.5c-6.3-9-13.6-17.1-22-24.2c-7.8-6.5-16.4-12.4-23-20.2
		c-7.8-9.2-10.4-20.2-10.5-32.1c-0.1-11.5,1-22.9-0.5-34.3c-3.1-22.3-13.2-42.9-23.8-62.5c-5.5-10.1-11.2-20.1-16.4-30.3
		c-5.5-10.8-11.2-22.6-9.4-35.1c0.8-5.5,3-10.6,6.9-14.6C141.9,179.4,140.8,178.3,140.1,179z"/>
	<path class="st1" d="M147.9,405.9c-5.1,10.2-11.9,19.5-20.2,27.4c-9.7,9.2-21,16.6-31.7,24.5c-11.1,8.2-21.7,17.1-31.8,26.4
		c-5.1,4.7-10,9.5-14.9,14.5c-4.5,4.7-9.2,9.4-12.5,15c-3.1,5.1-4.6,10.7-4.5,16.4c-0.3,0.4-0.5,0.8-0.6,1.3c0,0.2,0,0.3,0.2,0.4
		c0,0.1,0,0.3,0,0.5c-0.1,0-0.2,0-0.3,0c-0.5,0-0.5,0.8,0,0.8c0.3,0,0.5,0,0.8-0.1c0.3,3.2,1.1,6.4,2.3,9.5
		c3.5,8.8,10.5,16.6,19.5,19.8c19.8,7.1,43-10,43.3-30.8c0-1,1.5-1,1.5,0c0,2.4-0.3,4.9-1,7.2c-5.1,19.7-28.8,32.9-47.6,23.6
		c-8.6-4.3-15-12.5-18-21.5c-1.5-4.5-2.1-9.2-1.7-13.9c0.5-5.4,2.4-10.3,5.3-14.8c3.6-5.6,8.3-10.4,12.9-15.1
		c4.9-5,9.9-9.9,15.1-14.6c10.3-9.5,21.1-18.4,32.4-26.7c11.1-8.2,22.7-15.7,32.4-25.6c8.3-8.3,14.9-18.2,19.7-28.9
		c9.6-21.3,11.8-46,5.5-68.6c-0.3-0.9,1.2-1.3,1.4-0.4c0.8,2.7,1.4,5.4,1.9,8.1C161.5,362.5,158,385.8,147.9,405.9z"/>
	<path class="st1" d="M137.4,419.9c-2.6,6.7-10,9.8-16.3,11.9c-8.6,2.9-17.4,5.3-26.3,6.7c-16.7,2.7-35.2,1.9-50.3-6.7
		c-7.1-4-13.3-10-15.5-18.1c-0.2-0.9-1.7-0.5-1.4,0.4c4.2,15.9,22.1,23.5,36.8,26c18.7,3.2,37.6-0.6,55.4-6.4
		c7.4-2.4,16-5.6,19-13.5C139.2,419.4,137.7,419,137.4,419.9z"/>
	<path class="st1" d="M228.5,420.9c13.8,7.4,29.5,10.1,44.4,14.7c4,1.2,8,2.6,12,4c3.8,1.4,7.6,2.8,11.1,4.8
		c6.4,3.6,11.1,9.2,14.5,15.6c4.2,7.9,6.3,16.8,8.3,25.5c0.2,0.9,1.7,0.5,1.4-0.4c-3.4-14.3-7.3-30.2-19.7-39.5
		c-6.4-4.8-14.5-7.3-22-9.8c-7.8-2.6-15.8-4.7-23.7-6.8c-8.8-2.4-17.5-5.1-25.6-9.4C228.4,419.1,227.6,420.4,228.5,420.9z"/>
</g>
<g id="leafs-2">
	<path class="st1" d="M128.3,26.1c-3.2-1-6.8-1.9-10-0.4c0,0-0.1,0-0.1,0.1c-0.3-0.1-0.6,0.4-0.3,0.7c1.7,1.2,3.7,1.9,5.8,2
		c1.6,0,3.3-0.4,4.2-1.7c0,0,0.1,0,0.2,0C128.5,26.9,128.7,26.2,128.3,26.1z M123.3,27.7c-1.6-0.1-3.1-0.6-4.5-1.4
		c2.7-1.1,5.6-0.5,8.3,0.3C126.2,27.6,124.7,27.8,123.3,27.7z"/>
	<path class="st1" d="M205.4,25.4c0.8-1.6,2.8-1.6,4.2-1.5c0.2,0,0.3,0,0.3,0.2s0,0.4-0.1,0.5c-0.1,0.4-0.2,0.8-0.4,1.1
		c-0.4,0.6-1,1-1.7,1.2c-1,0.3-2.1,0.2-3.1,0.1c-0.5-0.1-0.5,0.7,0,0.8c1.9,0.2,4.4,0.2,5.5-1.7c0.2-0.4,0.4-0.9,0.5-1.4
		c0.1-0.4,0.1-0.9-0.2-1.2c-0.4-0.3-1-0.2-1.5-0.3c-0.6,0-1.2,0-1.7,0.1c-1,0.2-2,0.8-2.4,1.8C204.5,25.5,205.2,25.9,205.4,25.4z"/>
	<path class="st1" d="M202.8,109.9c0.8,1.3,1,2.9,1.7,4.3c0.6,1.2,1.6,2.2,3,2.4c0.5,0,0.5-0.7,0-0.8c-1.2-0.1-2.1-1.3-2.5-2.3
		c-0.6-1.3-0.8-2.7-1.6-4C203.2,109.1,202.5,109.5,202.8,109.9z"/>
	<path class="st1" d="M203.6,109.9c2.1,1.1,3.6,3.2,3.9,5.6c0,0.5,0.8,0.5,0.8,0c-0.2-2.6-1.9-5.1-4.2-6.3
		C203.5,109,203.2,109.6,203.6,109.9z"/>
	<path class="st1" d="M260,55.4c-0.1-0.7-0.2-1.4-0.3-2c-0.1-0.5-0.8-0.3-0.7,0.2l0,0c-1.1,0.4-2.1,1.3-2.4,2.5s0.1,2.6,1,3.4
		c0.1,0.1,0.3,0.3,0.5,0.4c0.2,0.1,0.3,0.1,0.5,0c1-0.5,1.5-1.5,1.6-2.6C260.2,56.6,260.1,56,260,55.4z M258.4,59.1
		c0-0.1-0.2-0.2-0.3-0.2l0,0c-0.7-0.7-1-1.7-0.7-2.6c0.2-0.9,0.9-1.6,1.8-1.9c0.2,0.9,0.3,1.8,0.3,2.6
		C259.4,57.8,259.1,58.7,258.4,59.1z"/>
	<path class="st1" d="M171,65.8c0-0.1-0.1-0.1-0.1-0.1c0.1-0.3-0.2-0.7-0.5-0.5c-1,0.5-2.2,1.3-2.4,2.5c-0.1,0.8,0.1,1.5,0.3,2.2
		c0.2,0.8,0.5,1.6,0.8,2.4c0.1,0.4,0.7,0.3,0.7,0c0.1,0.2,0.4,0.4,0.6,0.2C172.1,70.7,172.4,67.8,171,65.8z M169.8,71.8
		c-0.1,0.1-0.1,0.1-0.1,0.2c-0.2-0.7-0.4-1.4-0.6-2c-0.2-0.6-0.5-1.4-0.5-2c0.1-0.9,0.9-1.5,1.6-1.9c0,0,0,0.1,0.1,0.1
		C171.5,67.9,171.3,70.4,169.8,71.8z"/>
	<path class="st1" d="M84.9,159.5c-0.1-0.1-0.3-0.3-0.4-0.4c0.2,0.1,0.5,0,0.5-0.3c-0.2-2-0.9-4-2-5.7c0-0.1,0.1-0.1,0.1-0.2
		c0.2-0.4-0.5-0.8-0.6-0.4l0,0c-0.3,0-0.6,0.2-0.4,0.5l0.1,0.1c-0.5,1.1-0.7,2.3-0.2,3.5c0.5,1.3,1.4,2.4,2.4,3.4
		C84.7,160.3,85.3,159.8,84.9,159.5z M82.7,156.6c-0.3-0.6-0.4-1.2-0.3-1.9c0-0.3,0.1-0.5,0.2-0.8c0.9,1.5,1.4,3.1,1.6,4.8v0.1
		C83.7,158.2,83.1,157.4,82.7,156.6z"/>
	<path class="st1" d="M62.1,184.6c-0.8,0.1-1.6,0.5-2.2,1c0.4,0.5,1.1,0.7,1.7,0.8c1,0.1,1.9-0.3,2.7-0.8c0.4-0.2,0.8,0.4,0.4,0.7
		c-1,0.6-2.1,1-3.2,0.9c-1-0.1-1.9-0.6-2.5-1.4c-0.2-0.2,0-0.5,0.2-0.5c0.9-0.7,2-1.2,3.1-1.3c0.8-0.1,2.6-0.2,2.6,1
		c0,0.5-0.7,0.5-0.8,0c0-0.3-0.6-0.3-0.8-0.3C63,184.5,62.5,184.5,62.1,184.6z"/>
	<path class="st1" d="M59.5,235.3c-0.1,0-0.2,0-0.3,0.1l0,0c-0.1,0-0.2,0-0.3,0c-0.2,0.1-0.2,0.3-0.1,0.5c0.4,0.9,0.8,1.8,1.5,2.6
		c0.6,0.7,1.5,1.1,2.5,1.1h0.1c0.1,0.1,0.2,0.2,0.4,0.1c0.2-0.1,0.3-0.3,0.3-0.5C63.1,237.2,61.4,235.6,59.5,235.3z M59.6,236.1
		c1.4,0.3,2.5,1.4,3,2.8C61,238.8,60.2,237.3,59.6,236.1z"/>
	<path class="st1" d="M103.6,237c-0.8,0.8-1.6,1.5-2.5,2.1c-0.9,0.5-1.9,0.8-2.9,0.3c-0.1,0-0.2-0.2-0.2-0.3c0.1-1.1,0.8-2,1.7-2.6
		c1-0.7,2.2-0.9,3.4-1c0.2,0,0.4,0,0.5,0.3c0,0.2-0.1,0.4-0.3,0.5c-1,0.2-2.1,0.3-3.1,0.8c-0.7,0.4-1.3,1-1.4,1.8
		c0.7,0.2,1.5-0.1,2.1-0.5c0.8-0.5,1.5-1.2,2.2-1.8C103.4,236.2,103.9,236.7,103.6,237z"/>
	<path class="st1" d="M115,221.7c-1.5,2-3.9,3.1-6.4,2.9c-0.5,0-0.5-0.8,0-0.8c1.9,0.2,3.9-0.5,5.3-2c0,0-0.1,0-0.2,0
		c-0.9-0.1-1.9-0.2-2.8,0c-0.7,0.2-1.3,0.6-1.6,1.3c-0.1,0.2-0.2,0.3-0.5,0.2c-0.2,0-0.3-0.3-0.3-0.5c0.3-0.9,1.1-1.4,1.9-1.7
		c1-0.4,2.1-0.2,3.2-0.1c0.2,0,0.4,0.2,0.4,0.4v0.1c0.1-0.1,0.2-0.2,0.3-0.4C114.7,220.9,115.3,221.3,115,221.7z"/>
	<path class="st1" d="M186.1,192.6c0.2-0.3-0.1-0.8-0.5-0.5c-0.9,0.6-2,1.3-2.2,2.5c-0.1,0.6,0,1.3,0.2,1.9c0.2,0.7,0.5,1.4,0.8,2
		c0.1,0.2,0.2,0.3,0.5,0.3c0.2,0,0.3-0.3,0.3-0.5c0,0,0-0.1-0.1-0.1c1-0.1,1.4-1.6,1.5-2.4C186.5,194.7,186.3,193.7,186.1,192.6z
		 M185.5,196.7c-0.1,0.3-0.3,0.8-0.8,0.8l0,0c-0.1-0.3-0.2-0.6-0.3-0.8c-0.2-0.5-0.4-1.1-0.3-1.7c0.1-0.8,0.7-1.4,1.3-1.8
		c0.2,0.8,0.3,1.5,0.3,2.3C185.7,195.8,185.6,196.3,185.5,196.7z"/>
	<path class="st1" d="M182.4,106.7c-0.4,1.1-1.3,1.9-2.4,2.3c-1.3,0.4-2.7,0.1-3.9-0.5c-0.2-0.1-0.2-0.4-0.1-0.5c0-0.1,0-0.1,0-0.2
		c1.1-2.2,3.7-2.8,6-3c0.5,0,0.5,0.7,0,0.8c-2,0.2-4.2,0.7-5.3,2.5c0.9,0.4,2,0.6,2.9,0.3c0.9-0.3,1.7-0.9,1.9-1.8
		C181.8,106.1,182.5,106.3,182.4,106.7z"/>
	<path class="st1" d="M159.6,176.1L159.6,176.1c1.1,0.2,2.3-0.2,3-1.1c0.1-0.2,0.4-0.1,0.5,0c0.1,0.2,0.1,0.4,0,0.5
		c-1,1.2-2.8,1.7-4.2,1.2c-0.4-0.1-0.3-0.6-0.1-0.7c0.1-1,0.5-1.9,1.3-2.5c0.8-0.7,1.9-1,2.9-0.8c0.2,0,0.3,0.3,0.3,0.5
		c-0.1,0.2-0.3,0.3-0.5,0.3c-0.8-0.1-1.6,0.1-2.3,0.6C160.1,174.6,159.7,175.3,159.6,176.1z"/>
	<path class="st1" d="M180.7,248.1c-2.2-0.5-4.7,0.6-5.8,2.7c0,0.1-0.1,0.2,0,0.2c-0.3,0-0.5,0.6,0,0.7c1,0.4,2.1,0.1,3-0.4
		c1-0.6,1.7-1.4,2.4-2.3c0.1-0.1,0.1-0.2,0.1-0.2h0.1C181,248.9,181.2,248.2,180.7,248.1z M175.6,251.1L175.6,251.1
		c0.8-1.5,2.4-2.4,4-2.4C178.6,249.9,177.2,251.3,175.6,251.1z"/>
	<path class="st1" d="M197.1,364.8L197.1,364.8l-0.1-0.1c0-0.5-0.7-0.5-0.7-0.1c-1-0.2-2-0.1-3,0.3c-1.1,0.4-2.2,1.2-2.6,2.3
		c-0.1,0.4,0.3,0.6,0.5,0.4h0.1c1.3,0.1,2.7,0.2,3.9-0.4c0.7-0.4,1.4-1,1.6-1.8C197.4,365.6,197.5,364.9,197.1,364.8z M194.8,366.7
		c-1,0.4-2.1,0.3-3.1,0.3c0.4-0.7,1.3-1.2,2.1-1.4c0.8-0.3,1.7-0.3,2.5-0.2C195.9,365.9,195.4,366.4,194.8,366.7z"/>
	<path class="st1" d="M208.3,432.2c-0.8,0-1.5,0-2.3,0c-0.7,0.1-1.4,0.1-2,0.5c-1,0.6-1.2,1.9-1.3,3c0,0.2,0.2,0.4,0.4,0.4
		s0.3-0.2,0.4-0.4v-0.1c1.9-0.1,3.7-1.1,4.8-2.6l0.1-0.1C208.8,432.9,208.8,432.2,208.3,432.2z M203.6,434.9c0.1-0.7,0.4-1.3,1-1.6
		c0.5-0.2,1.2-0.3,1.7-0.3c0.4,0,0.7,0,1.1,0C206.5,434,205.1,434.7,203.6,434.9z"/>
	<path class="st1" d="M125.7,595.9c-0.4-0.5-0.7-1-1.1-1.5c-0.3-0.5-0.6-1-1.2-1.2c-0.5-0.2-1.1-0.3-1.7-0.5s-1.2-0.3-1.9-0.5
		c-0.1,0-0.2,0-0.2,0c-0.2-0.1-0.6,0-0.6,0.3c0.1,1.3,0.8,2.4,1.9,3c1.2,0.7,2.5,0.7,3.8,0.6c0,0.1,0.1,0.1,0.2,0.2
		C125.4,596.7,126,596.3,125.7,595.9z M121.6,594.9c-0.7-0.4-1.4-1.1-1.6-1.9c0.5,0.1,0.9,0.2,1.4,0.4c0.5,0.1,1.1,0.2,1.6,0.4
		s0.8,0.7,1.1,1.1c0.1,0.2,0.2,0.3,0.4,0.5C123.5,595.5,122.5,595.4,121.6,594.9z"/>
	<path class="st1" d="M119.8,743.1c-0.2-0.3-0.6-0.2-0.7,0.1c0-0.1-0.1-0.1-0.1-0.2c-0.2-0.1-0.4,0-0.5,0.1c-0.8,2-0.4,4.4,1.2,5.8
		c0.1,0.1,0.3,0.2,0.5,0.1c0.2-0.1,0.3-0.2,0.5-0.4c0.1-0.1,0.2-0.2,0.2-0.3C121,746.5,120.6,744.7,119.8,743.1z M120.1,748
		C120.1,748,120.1,748.1,120.1,748c0,0.1-0.1,0.1-0.1,0.2c-1.2-1.2-1.6-3.1-0.9-4.7c0,0,0,0,0-0.1l0,0
		C119.9,744.8,120.2,746.5,120.1,748z"/>
	<path class="st1" d="M101.4,678.3c-0.1-2-1.3-4-3.2-4.8c-0.3-0.2-0.6,0.2-0.6,0.4c-0.2-0.3-0.8-0.1-0.7,0.3
		c0.4,1.1,0.8,2.2,1.5,3.1c0.6,0.8,1.4,1.3,2.4,1.5c0.1,0,0.2,0,0.2,0h0.1c0.1,0,0.2-0.2,0.2-0.3
		C101.4,678.5,101.4,678.4,101.4,678.3z M99,676.8c-0.6-0.8-0.9-1.8-1.3-2.7l0.1,0.1c1.5,0.7,2.6,2.2,2.8,3.9
		C100,677.8,99.4,677.3,99,676.8z"/>
	<path class="st1" d="M253.8,335C253.8,334.9,253.8,334.9,253.8,335c0.4-0.3,0-0.9-0.4-0.7c-1.9,1.3-3.8,3.1-4,5.6
		c-0.1,0.1-0.3,0.1-0.4,0.2c-0.2,0.1-0.3,0.2-0.3,0.5c0,0.2,0.3,0.3,0.5,0.3c0.1,0,0.2-0.1,0.4-0.1c0.2,0.1,0.6,0,0.6-0.3
		c0.9-0.4,1.7-0.9,2.4-1.6c0.9-0.9,1.5-2.1,1.4-3.4C254,335.1,253.9,335,253.8,335z M250.3,339.5c0.3-1.7,1.6-3.1,3-4.1
		C253.3,337.3,251.9,338.6,250.3,339.5z"/>
	<path class="st1" d="M149.7,273.4c-0.6,0.5-1.5,0.4-2.2,0c-0.5-0.2-0.9-0.6-1.3-0.9c-0.5-0.3-1-0.7-1.4-1c-0.2-0.1-0.2-0.3-0.1-0.5
		c0.1-0.2,0.4-0.2,0.5-0.1c0.8,0.5,1.5,1.1,2.3,1.7c0.4,0.3,1.1,0.6,1.6,0.3c-1.1-1.1-2.1-2.7-3.8-2.6c-0.5,0-0.5-0.7,0-0.8
		c2-0.1,3.1,1.8,4.5,3l0,0c0.1,0.1,0.2,0.2,0.2,0.2s0.1,0.1,0.2,0.1C150.6,273.2,150.1,273.7,149.7,273.4z"/>
	<path class="st1" d="M150.1,272.8c-0.1-0.1-0.2-0.1-0.2-0.2C150,272.6,150,272.7,150.1,272.8z"/>
	<path class="st1" d="M176.7,748.7c-0.1-0.2-0.3-0.3-0.5-0.2c0.1-0.1,0.1-0.1,0.2-0.2c0.3-0.3-0.2-0.9-0.5-0.5c-1,1-2.2,2.3-2.2,3.8
		c0,1.1,0.6,2.2,1.6,2.6c-0.8,1-1.8,1.6-3,1.9c-0.5,0.1-0.3,0.8,0.2,0.7c1.6-0.3,3.1-1.4,3.9-2.8
		C177.2,752.4,177.4,750.4,176.7,748.7z M175.7,753.6c-1-0.2-1.4-1.3-1.3-2.2c0.1-1,0.8-1.9,1.5-2.6c0,0,0,0.1,0,0.2
		C176.6,750.4,176.5,752.2,175.7,753.6z"/>
	<path class="st1" d="M91.4,713.2c-0.1-0.7-0.4-1.3-1-1.7c-0.3-0.2-0.6-0.4-0.9-0.6c-0.3-0.2-0.7-0.4-1-0.6c-0.1-0.1-0.3-0.1-0.4,0
		c0.5-1.3,0.4-2.8-0.2-4c-0.1-0.2-0.3-0.2-0.5-0.1c-0.1,0-0.1,0-0.2,0c-0.7,0.4-1.2,1.3-1.1,2.1c0,0.9,0.5,1.7,1.1,2.3l0,0
		c-0.1,0.2,0,0.4,0.2,0.5c0.5,1.6,2.1,2.7,3.7,2.6C91.3,713.7,91.5,713.5,91.4,713.2C91.5,713.3,91.4,713.3,91.4,713.2z M87.5,709.9
		c-0.3-0.4-0.6-0.9-0.6-1.5c0-0.5,0.2-1,0.5-1.4C87.8,707.9,87.8,709,87.5,709.9z M88,710.8L88,710.8c0.7,0.5,1.3,0.8,1.8,1.2
		c0.2,0.1,0.4,0.3,0.5,0.5c0.1,0.1,0.1,0.3,0.2,0.4C89.4,712.9,88.4,712,88,710.8z"/>
	<path class="st1" d="M220.1,137.7c-0.1-1.3,1.1-2.3,2.1-2.9c0.1-0.1,0.3-0.2,0.4-0.3c0.1,0,0.1-0.1,0.2-0.1c0,0,0.1,0,0,0
		c0.1,0.1,0.2,0.4,0.2,0.6c0,0.6-0.4,1.2-0.8,1.6c-0.5,0.6-1.1,1-1.8,1.2c-0.5,0.1-0.3,0.9,0.2,0.7c0.8-0.2,1.5-0.7,2.1-1.3
		c0.5-0.6,1-1.4,1-2.2c0-0.3,0-0.7-0.2-1s-0.6-0.4-1-0.3c-0.4,0.1-0.8,0.4-1.1,0.7c-0.3,0.2-0.7,0.5-1,0.8c-0.6,0.6-1.1,1.5-1,2.4
		c0,0.2,0.2,0.4,0.4,0.4C220,138.1,220.2,137.9,220.1,137.7z"/>
	<path class="st1" d="M285.4,165.2C285.4,165.2,285.3,165.2,285.4,165.2c0-0.1,0-0.2,0-0.3c0.1-0.5-0.6-0.7-0.7-0.2
		c-0.7,3,0.3,6.2,2.5,8.3c0.1,0.1,0.3,0.1,0.4,0.1c0.1,0.3,0.6,0.3,0.7,0C288.9,170.1,287.8,167,285.4,165.2z M287.7,172.4
		c-1.7-1.7-2.6-4-2.4-6.3C287.1,167.5,288,170,287.7,172.4z"/>
	<path class="st1" d="M314.9,184.5c-0.5-0.1-1.1,0-1.6,0.1c-0.4,0.1-0.9,0.2-1.3,0.4c-0.8,0.4-1.5,1-1.4,2c0,0.2,0.1,0.4,0.3,0.5
		c1.1,0.2,2.2,0.2,3.3,0.1c0.8-0.1,1.7-0.3,2-1.1C316.5,185.6,315.7,184.7,314.9,184.5z M315.5,186.2c-0.2,0.5-1,0.6-1.4,0.6
		c-0.9,0-1.8,0-2.7-0.1c-0.1-0.5,0.5-0.8,0.8-1c0.3-0.1,0.6-0.2,0.9-0.3c0.4-0.1,0.8-0.2,1.2-0.2c0.4,0,0.7,0.1,0.9,0.3
		C315.4,185.7,315.6,186,315.5,186.2z"/>
	<path class="st1" d="M309.6,265.8c-1.5,2.4-4.9,3.4-7.5,2.1c-0.3-0.2-0.2-0.6,0.1-0.7c0-0.1-0.1-0.2,0-0.3c0.7-1.5,1.6-3.1,3.1-3.9
		c1.3-0.7,3-0.7,4.1,0.4c0.3,0.3-0.2,0.9-0.5,0.5c-0.9-0.9-2.4-0.8-3.4-0.1c-1.2,0.8-1.9,2.2-2.6,3.5v0.1c2.2,0.8,4.9,0,6.1-2
		C309.2,265,309.8,265.4,309.6,265.8z"/>
	<path class="st1" d="M312.4,339.5c-0.2,1-1,1.9-2.1,2c0,0,0,0-0.1,0l0,0c-0.1,0-0.1,0-0.1,0s0,0-0.1,0c-1.3-1-1.3-3.2,0.1-4
		c0.4-0.3,0.8,0.4,0.4,0.7c-0.5,0.3-0.7,0.8-0.7,1.3c0,0.3,0,0.5,0.1,0.8c0-0.1,0,0.1,0,0.1s0,0.1,0.1,0.1c0,0.1,0.1,0.1,0.1,0.2
		c0,0,0.1,0.1,0.2,0.2c0.7-0.1,1.2-0.8,1.3-1.5c0.1-1-0.5-2-0.9-2.9c-0.2-0.4,0.4-0.8,0.7-0.4C312,337,312.7,338.2,312.4,339.5z"/>
	<path class="st1" d="M73.7,276.7c0,0.5-0.8,0.3-0.7-0.1c0.2-2-0.3-4.1-1.6-5.7c-0.5,1.3-0.9,2.7-0.8,4.1c0.1,1.3,0.7,2.5,1.9,3.1
		c0.4,0.2,0,0.9-0.4,0.6c-1.3-0.7-2-2-2.2-3.4c-0.2-1.8,0.4-3.6,1-5.2c0.1-0.2,0.2-0.3,0.4-0.2c0.1,0,0.2,0,0.3,0.1
		C73.2,271.8,74,274.3,73.7,276.7z"/>
	<path class="st1" d="M89.5,187.2c-0.2-2,0.6-4,2.1-5.3c0.3-0.2,0.8-0.8,1.2-0.7c0.3,0.1,0.2,1.3,0.2,1.6c0,1.2-0.2,2.4-0.8,3.4
		c-0.6,1-1.5,1.8-2.6,2.1c-0.5,0.1-0.3,0.8,0.2,0.7c2.8-0.7,3.9-3.6,3.9-6.2c0-0.4,0-0.7,0-1.1c0-0.3,0-0.6-0.2-0.9
		c-0.3-0.5-1-0.4-1.5-0.2c-1.1,0.5-2,1.6-2.5,2.6c-0.7,1.2-1,2.6-0.9,4C88.8,187.7,89.6,187.7,89.5,187.2z"/>
	<path class="st1" d="M73.8,109.9c-2,1.8-5.1,2.2-7.5,0.9c-0.2-0.1-0.2-0.2-0.2-0.4v-0.1c0.2-1.4,1.3-2.4,2.6-2.8
		c1.7-0.5,3.4,0.2,4.9,0.8c0.4,0.2,0.1,0.8-0.4,0.6c-1.2-0.5-2.7-1.1-4.1-0.8c-1,0.2-2,1-2.2,2c2.1,1,4.7,0.6,6.4-0.9
		C73.6,109,74.2,109.6,73.8,109.9z"/>
	<path class="st1" d="M87.1,43.7c-1.3-1.2-1.8-3.1-1.2-4.7c0.1-0.2,0.2-0.4,0.3-0.6c0.1-0.1,0.2-0.4,0.4-0.2
		c0.2,0.2,0.2,0.5,0.3,0.7c0.1,0.2,0.2,0.5,0.2,0.8c0.2,1.1,0.2,2.2-0.1,3.3c-0.1,0.5,0.6,0.7,0.7,0.2c0.3-1,0.4-2.1,0.2-3.2
		c-0.1-0.5-0.2-1.1-0.4-1.6c-0.2-0.4-0.3-0.9-0.8-1c-0.9-0.2-1.5,1.1-1.6,1.8c-0.2,0.8-0.2,1.7,0,2.5c0.2,1,0.8,1.8,1.5,2.5
		C86.9,44.5,87.5,44,87.1,43.7z"/>
	<path class="st1" d="M36.8,91.2c-0.1,0-0.2,0-0.2,0c0.1-0.1,0.2-0.2,0.2-0.4c-0.5-2.1-2.2-3.8-4.3-4.3c0-0.3-0.5-0.4-0.7-0.1
		c-0.1,0-0.3,0-0.4,0c-0.5,0-0.5,0.7,0,0.8c0.1,0,0.2,0,0.3,0c0.1,2.6,2.5,4.8,5,4.8C37.2,92,37.2,91.2,36.8,91.2z M32.5,87.3
		c1.7,0.5,3.1,2,3.5,3.7c0,0.1,0,0.1,0.1,0.1C34.2,90.8,32.7,89.2,32.5,87.3z"/>
	<path class="st1" d="M171.3,281.3c-0.3-0.6-1.1-0.8-1.7-0.6c-0.7,0.3-1.3,0.9-1.8,1.5c-1,1.2-1.9,2.6-1.6,4.2
		c0.1,0.4,0.5,0.3,0.7,0.1c0,0,0.1,0,0.2,0c1.1-0.5,2.1-1.3,3-2.2c0.4-0.4,0.8-0.9,1-1.4c0.1-0.3,0.2-0.6,0.2-0.9
		C171.3,281.7,171.4,281.5,171.3,281.3z M170.1,282.7c-0.3,0.4-0.6,0.8-1,1.2c-0.7,0.7-1.5,1.3-2.3,1.7c0-1,0.7-2,1.3-2.7
		c0.4-0.5,0.8-1,1.3-1.3c0.2-0.1,0.5-0.3,0.7-0.3c0,0.1,0,0.2,0.1,0.4C170.6,282,170.3,282.4,170.1,282.7z"/>
	<path class="st1" d="M223,405.3c-0.2-0.3-0.6,0-0.6,0.2h-0.1c-1.3,0.4-2.3,1.5-2.8,2.8c-0.5,1.4-0.1,3,0.8,4.1
		c0.3,0.4,0.8-0.2,0.5-0.5c-0.1-0.1-0.1-0.2-0.2-0.3l0,0c1.2-0.6,2.3-1.5,2.9-2.8C224,407.7,223.9,406.3,223,405.3z M222.8,408.7
		c-0.5,1-1.5,1.8-2.5,2.3c-0.3-0.8-0.3-1.6-0.1-2.4c0.3-1,1.2-1.9,2.2-2.2c0.1,0,0.2-0.1,0.2-0.2
		C223.2,406.9,223.2,407.9,222.8,408.7z"/>
	<path class="st1" d="M265.3,479.4c-0.4,1.2-1.6,2.3-2.9,2h-0.1c-0.1,0.1-0.3,0.1-0.4-0.1c-0.9-0.9-1.2-2.3-0.9-3.5
		c0.2-1.4,1.1-2.7,1.9-3.8c0.3-0.4,0.9,0,0.7,0.4c-0.7,1-1.5,2.1-1.8,3.4c-0.2,1-0.1,2.2,0.6,3c0.1,0,0.1,0,0.2,0
		c1,0.2,1.9-0.8,2-1.7c0.2-1.2-0.5-2.5-1-3.6c-0.2-0.4,0.4-0.8,0.6-0.4C264.9,476.3,265.7,477.9,265.3,479.4z"/>
	<path class="st1" d="M290,535.1c-0.5-0.1-1.1,0-1.6,0.2c-1,0.5-1.7,1.4-2.3,2.4c-0.6,1.2-1,2.5-1.3,3.8c-0.1,0.5,0.6,0.7,0.7,0.2
		c0.1-0.3,0.1-0.6,0.2-1c1.1-0.2,2.2-0.6,3.1-1.4c0.4-0.4,0.8-0.8,1.2-1.3c0.3-0.5,0.7-1.1,0.7-1.7
		C290.9,535.8,290.6,535.3,290,535.1z M290,536.8c-0.1,0.2-0.2,0.5-0.4,0.7c-0.3,0.4-0.6,0.8-0.9,1.1c-0.7,0.7-1.6,1.1-2.5,1.3
		c0.4-1.3,0.9-2.5,1.9-3.4c0.3-0.3,0.7-0.6,1.1-0.7c0.3-0.1,0.8-0.1,0.9,0.2C290.2,536.3,290,536.6,290,536.8z"/>
	<path class="st1" d="M281.5,604.8c0-0.1-0.1-0.2-0.2-0.2l0,0c0.1-2.8-1.1-5.5-3.3-7.3c-0.3-0.2-0.7,0.1-0.6,0.4
		c-0.2,0-0.3,0-0.4,0.3c-0.7,3.2,0.4,6.7,2.9,9c0.2,0.2,0.5,0,0.6-0.2c0.1,0,0.2-0.1,0.2-0.2c0.3-0.5,0.6-1,0.8-1.5
		C281.6,605,281.6,604.8,281.5,604.8z M280.5,605.6C280.4,605.6,280.4,605.6,280.5,605.6c-0.1,0.2-0.2,0.4-0.3,0.5
		c-2.1-2-3-5.1-2.4-8V598C279.8,599.9,281,602.8,280.5,605.6z"/>
	<path class="st1" d="M196.5,601.3c-0.3,0.3-0.9-0.2-0.5-0.5c1.4-1.3,2.2-3.1,2.3-5c-1.2,0.1-2.2,0.8-2.8,1.9
		c-0.3,0.6-0.4,1.2-0.3,1.8c0.1,0.8,0.4,1.5,0.5,2.3c0.1,0.5-0.7,0.7-0.7,0.2c-0.1-0.9-0.5-1.8-0.6-2.7c0-0.7,0.1-1.4,0.5-2
		c0.7-1.2,2-2.1,3.4-2.2l0,0c0-0.5,0.7-0.5,0.8,0C199.2,597.3,198.3,599.7,196.5,601.3z"/>
	<path class="st1" d="M192.6,624.2c-0.1,0.2-0.3,0.2-0.5,0.1c-0.2-0.1-0.2-0.3-0.1-0.5c0.9-1.2,1.2-2.8,0.9-4.3
		c-0.1,0.1-0.1,0.1-0.2,0.1c-0.8,0-1.4,0.6-1.6,1.3c-0.4,1-0.1,2,0.1,3c0.1,0.5-0.6,0.7-0.7,0.2c-0.2-1.2-0.5-2.5,0-3.6
		c0.4-0.9,1.2-1.7,2.3-1.6c0.1,0,0.2,0,0.2,0.1c0.2-0.2,0.6-0.2,0.6,0.1C194,620.8,193.7,622.8,192.6,624.2z"/>
	<path class="st1" d="M63.7,433c-0.3-1.4-1.6-2-2.9-2.5c-0.1,0-0.1,0-0.2-0.1c0,0,0,0-0.1,0c-0.2,0-0.3,0.1-0.4,0.4l0,0
		c-0.1,0.7-0.4,1.4-0.5,2.2c-0.1,0.8,0.1,1.6,0.3,2.3c0.5,1.4,1.6,2.6,2.6,3.8c0.3,0.3,0.7,0,0.6-0.4c0.2,0.1,0.5-0.1,0.5-0.3
		c0.1-0.9,0.1-1.8,0.2-2.7C63.8,434.7,63.9,433.8,63.7,433z M60.7,435c-0.2-0.7-0.3-1.4-0.2-2.1c0.1-0.5,0.3-1,0.4-1.5
		c0.4,0.2,0.9,0.3,1.3,0.6c0.6,0.4,0.9,1,0.9,1.7c0.2,1.6,0,3.2-0.1,4.7C62,437.3,61.1,436.2,60.7,435z"/>
	<path class="st1" d="M60.8,430.5c-0.1,0-0.1,0-0.2-0.1c0,0,0,0-0.1,0C60.7,430.4,60.8,430.4,60.8,430.5z"/>
	<path class="st1" d="M60.5,430.4c-0.2,0-0.3,0.1-0.4,0.4C60.2,430.6,60.3,430.4,60.5,430.4z"/>
	<path class="st1" d="M97.4,456.1L97.4,456.1c0.1-0.2,0.1-0.4,0.2-0.5c0.1-0.5-0.6-0.7-0.7-0.2c0,0.1,0,0.2-0.1,0.3
		c-0.2,0.1-0.4,0.3-0.2,0.5l0,0c-0.2,0.5-0.5,0.9-0.7,1.4c-0.3,0.7-0.5,1.4-0.6,2.1c-0.2,1.5,0.2,3,0.9,4.3c0,0.1,0.1,0.1,0.2,0.1
		c-0.1,0.1-0.1,0.2-0.2,0.3c-0.2,0.4,0.4,0.8,0.7,0.4C98.3,462.2,99,458.8,97.4,456.1z M96,459.5c0.1-0.7,0.3-1.3,0.7-1.9
		c0.1-0.2,0.2-0.4,0.3-0.6c0.9,2,0.6,4.4-0.3,6.4C96,462.2,95.8,460.8,96,459.5z"/>
	<path class="st1" d="M59.4,487.2c-1.8-1.7-4.5-1.9-6.5-0.5c0.2,0.2,0.4,0.5,0.5,0.8c0.3,0.5,0.8,0.8,1.4,1.1
		c1.3,0.5,2.7,0.7,4.1,0.4c0.5-0.1,0.7,0.6,0.2,0.7c-1.4,0.2-2.9,0.1-4.3-0.3c-0.6-0.2-1.2-0.5-1.7-1c-0.2-0.2-0.3-0.5-0.5-0.7
		c-0.1-0.2-0.2-0.4-0.4-0.5c-0.3,0.2-0.8-0.2-0.5-0.6c2.3-2.1,5.9-2.1,8.1,0.1C60.3,487,59.8,487.5,59.4,487.2z"/>
	<path class="st1" d="M61.1,569.5c-0.2,0.4-0.9,0-0.7-0.4c0.5-1.1,0.5-2.4-0.3-3.4c-0.3-0.5-0.8-0.8-1.2-1.1
		c-0.3-0.2-0.7-0.3-1.1-0.3c0.1,0.5,0,1,0,1.5s-0.1,1.1,0.1,1.6c0.2,0.5,0.7,0.9,1.1,1.3c0.5,0.4,1,0.7,1.5,1c0.4,0.2,0,0.9-0.4,0.6
		c-0.6-0.4-1.2-0.8-1.7-1.2s-1-0.8-1.2-1.3c-0.5-1.2,0-2.4-0.2-3.6v-0.1c-0.5-0.1-0.5-0.8,0-0.8c0.8,0.1,1.6,0.2,2.3,0.5
		c0.6,0.3,1.1,0.8,1.5,1.3C61.7,566.5,61.8,568.2,61.1,569.5z"/>
	<path class="st1" d="M36.9,331c0-0.1,0-0.2,0-0.2c-1.7-2.7-5.3-4-8.3-2.9c-0.4,0.2-0.3,0.8,0.1,0.8c0,0,0,0,0,0.1
		c1.5,2.8,5.2,4.2,8.2,3.1C37.2,331.6,37.1,331.1,36.9,331z M29.3,328.4c2.6-0.6,5.4,0.5,6.8,2.8l0,0
		C33.6,331.9,30.7,330.8,29.3,328.4z"/>
</g>
<g id="leafs-1">
	<path class="st1" d="M94.8,290c-0.3-0.1-2.7-1.2-3.2-1.5c-0.9-0.6-1.7-1.3-2.1-2.3c-0.2-0.5-0.3-1.1,0.2-1.4s1,0,1.4,0.2
		c0.9,0.4,1.9,0.9,2.4,1.8c0.5,0.7,0.5,1.4,0.5,2.2c0.3,0.1,0.7,0.3,1,0.4C95.5,289.5,95.3,290.2,94.8,290z"/>
	<path class="st1" d="M148.3,145.5c0,0.2-0.2,0.4-0.4,0.4c-0.5,0-0.9-0.2-1.1-0.2c0,0-0.1,0-0.2,0c-0.9-0.2-1.7-0.7-2.2-1.5l0,0
		c0,0-0.1-0.1-0.1-0.2l0,0c-0.3-0.5-0.5-1.1-0.6-1.8c0-0.2,0.2-0.4,0.4-0.4s0.4,0.2,0.4,0.4c0,0.1,0,0.2,0,0.3c0,0,0,0,0-0.1l0,0
		c0.1-0.2,0.2-0.3,0.3-0.5c0-0.1,0-0.2,0-0.2s0,0-0.1,0c-0.2,0-0.4-0.1-0.4-0.3c-0.1-0.2,0.1-0.4,0.3-0.5c1.1-0.2,2.1,0.4,2.8,1.2
		C148,143.1,148.1,144.3,148.3,145.5z"/>
	<path class="st1" d="M159.3,460.4C159.3,460.4,159.2,460.4,159.3,460.4L159.3,460.4L159.3,460.4z"/>
	<path class="st1" d="M194,729L194,729L194,729L194,729z"/>
	<path class="st1" d="M223,307.5c0,1.1-0.7,2.1-1.6,2.6c-1,0.6-2.3,0.8-3.5,0.9c-0.1,0-0.1,0-0.2,0c0,0.1-0.1,0.2-0.1,0.3
		c-0.1,0.5-0.9,0.3-0.7-0.2c0.7-2.3,2.9-4,5.2-3.9c0.1,0,0.1,0,0.2,0.1C222.5,307,223,307.1,223,307.5z"/>
	<path class="st1" d="M221.7,219.2c-0.2,0.3-0.6,0.2-0.7-0.1c-2.2-1.9-2.2-5-2.1-7.7c-0.1,0-0.1-0.1-0.2-0.1
		c-1.3-1.9-2.7-4.1-2.4-6.6c0-0.4,0.6-0.5,0.7-0.2c1.3,0.3,2.5,1.3,3.1,2.5c0.6,1.3,0.5,2.9-0.2,4.1c1.3,0.3,2,2.2,2.3,3.3
		C222.6,216,222.4,217.7,221.7,219.2z"/>
	<path class="st1" d="M98.9,69c0,0.1,0,0.2,0,0.3c0,0.1-0.1,0.2-0.2,0.2c-0.1,0.1-0.2,0.1-0.3,0l0,0c-0.1,0.1-0.1,0.1-0.2,0.1
		s-0.2,0-0.3,0c-0.1,0-0.2,0-0.3,0c-0.1,0.1-0.1,0.1-0.2,0.1c-2.3,0-4.5-1.8-4.9-4.1c-0.1-0.3,0.2-0.5,0.5-0.5c0,0,0.1-0.1,0.2-0.1
		c1.5,0,3.1,0.5,4.2,1.4c0.1,0,0.1,0,0.2,0l0.2,0.1c0.1-0.2,0.4-0.3,0.6-0.1c0.1,0.1,0.1,0.2,0.1,0.3c0.1,0.3,0.1,0.6-0.1,0.8h0.1
		c0.1,0,0.2,0.1,0.2,0.2c0.1,0.2,0.2,0.4,0.2,0.6C98.9,68.7,98.9,68.8,98.9,69z"/>
	<path class="st1" d="M217,475.8c0,0.1,0,0.1,0,0.2c-0.3,1-1.1,1.6-2,2c-1,0.4-2,0.3-3,0.1c-0.2,0.2-0.4,0.1-0.5-0.1l0,0
		c-0.5-0.1-0.3-0.8,0.2-0.7l0,0c0.4-0.8,1-1.4,1.8-1.8c1-0.4,2.1-0.4,3.2-0.3C217.1,475.2,217.2,475.6,217,475.8z"/>
	<path class="st1" d="M236.2,41.5c-0.2,1.3-0.5,2.6-1.2,3.7c-0.4,0.6-1,1-1.6,1.2c-0.8,0.3-1.6,0.5-2.4,0.8
		c-0.4,0.1-0.6-0.4-0.3-0.7c-0.1-1.3,0.4-2.7,1.3-3.7c0.9-1,2.3-1.6,3.6-1.7c0.1-0.2,0.3-0.2,0.4-0.2
		C236.2,41.2,236.2,41.3,236.2,41.5z"/>
	<path class="st1" d="M172.1,38.1c0.1,0.3-0.2,0.5-0.4,0.5l0,0c0,0.1-0.1,0.2-0.2,0.2c-0.1,0.1-0.2,0.1-0.3,0
		c-0.2-0.1-0.5-0.2-0.7-0.3c-0.1,0-0.2,0-0.3,0c-2-0.9-3.7-2.5-4.7-4.4c-0.2-0.4,0.4-0.8,0.6-0.4c0,0,0.1,0.1,0.1,0.2
		c0.1-0.1,0.2-0.1,0.3-0.1c-0.1-0.1,0-0.3,0.1-0.4c0,0,0,0-0.1,0c-0.5-0.1-0.3-0.8,0.2-0.7C169.3,33.3,171.5,35.5,172.1,38.1z"/>
	<path class="st1" d="M165,456.9L165,456.9c-0.1,1.3-0.9,2.4-1.9,3.1c-1.2,0.8-2.7,1-4.1,1.2c-0.2,0-0.4,0-0.5-0.3
		c0-0.2,0.1-0.4,0.3-0.5c0.1,0,0.3,0,0.4-0.1c0,0,0,0,0.1,0l0,0l0,0c-0.1,0-0.3-0.1-0.4-0.2c-0.3-0.3-0.3-0.6-0.1-0.9
		c-0.5,0.1-0.6-0.6-0.1-0.7c1-0.2,1.7-1.1,2.6-1.6c1.1-0.5,2.3-0.5,3.4-0.5C164.9,456.6,165,456.7,165,456.9z"/>
	<path class="st1" d="M159.3,460.4C159.3,460.4,159.2,460.4,159.3,460.4L159.3,460.4L159.3,460.4z"/>
	<path class="st1" d="M100.8,652.1c-1.1,0.3-2.3,0-3.2-0.7c-0.9-0.7-1.4-1.8-1.4-2.9c0-0.4,0.4-0.5,0.6-0.3c0-0.1,0.1-0.1,0.2-0.1
		c1.7-0.5,3.5,0.5,4.1,2.1c0.1,0.2-0.1,0.4-0.3,0.5c-0.2,0-0.3,0-0.4-0.1c0,0.1,0,0.3-0.1,0.4c0,0.2-0.1,0.4-0.3,0.5
		c0.1,0,0.3,0,0.4-0.1C101.1,651.2,101.3,652,100.8,652.1z"/>
	<path class="st1" d="M195.1,728.8c-0.2,0.8-0.8,1.5-1.5,1.9c-0.8,0.5-1.8,0.6-2.7,0.8c0,0,0,0-0.1,0l0,0c-0.2,0.2-0.6,0.1-0.6-0.3
		c0-1,0.6-1.9,1.4-2.4c0.9-0.6,2.1-0.7,3.1-0.6c0.2,0,0.4,0.1,0.4,0.3l0,0C195.1,728.7,195.1,728.8,195.1,728.8z"/>
	<path class="st1" d="M186.4,714.4C186.4,714.4,186.5,714.4,186.4,714.4c0,0.1,0,0.3-0.1,0.4c-0.3,0.3-0.7,0.4-1.1,0.4
		c-0.5,0-0.9,0-1.4-0.1c-0.8-0.2-1.5-0.8-2.2-1.4c-0.2-0.2-0.1-0.4,0-0.5c0-0.1,0.1-0.1,0.2-0.2c0.5-0.2,0.9-0.3,1.4-0.3
		s0.9,0,1.4,0.2c0.4,0.1,0.9,0.3,1.2,0.6C186.3,713.6,186.5,714,186.4,714.4z"/>
	<path class="st1" d="M190.1,713.2c-0.2,0.8-0.9,1.3-1.6,1.5c-0.7,0.2-1.5,0.4-2.2,0c-0.1,0.1-0.3,0.2-0.4,0.1
		c-0.2-0.1-0.3-0.3-0.3-0.5c0.1-0.4,0.2-0.8,0.5-1.2c0.2-0.3,0.6-0.5,1-0.6c0.9-0.2,1.8-0.1,2.7,0.1l0,0c0,0,0,0,0.1,0
		C190.1,712.8,190.2,713,190.1,713.2z"/>
	<path class="st1" d="M300.8,445.2c-1.4,0.2-4-0.9-4.5-1.5c0-0.1-0.1-0.1-0.1-0.2c-0.1,0-0.1,0.1-0.1,0.2c-0.3,0.4-0.8-0.2-0.5-0.5
		c0.3-0.4,0.9-0.9,1.8-1.5c1.5-0.8,3.1-0.9,4.6-0.4c0.1,0,0.2,0.1,0.2,0.2c0.4,0.1,0.6,0.1,1.1,0.2c0.3,0.1,0.6,0.3,0.5,0.6
		C303.5,443.5,302,444.9,300.8,445.2z"/>
	<path class="st1" d="M234,639.9c-0.1,1.5-0.7,3-1.7,4.1c-0.1,0.1-0.3,0.1-0.4,0.1c-0.1,0.2-0.4,0.3-0.6,0.1
		c-1.5-1.7-0.6-4.7,1.6-5.3c0.4-0.1,0.6,0.4,0.4,0.6l0.1,0.1c0.1-0.1,0.2-0.1,0.3-0.1C233.9,639.5,234,639.7,234,639.9z"/>
	<path class="st1" d="M285.7,544.7c-0.1,0.2-0.3,0.2-0.5,0.1l0,0c0.4,0.9-0.3,2-1.1,2.6c-0.3,0.2-0.6,0.4-1,0.5
		c-0.6,0.4-1.1,0.8-1.7,1.2l0,0c0,0.2-0.3,0.3-0.5,0.3c-0.1,0-0.2-0.1-0.2-0.2c-0.3,0.1-0.7-0.3-0.4-0.6c0.2-0.2,0.3-0.3,0.5-0.4
		c0.2-1.1,0.6-2.2,1.4-3.1c0.9-0.9,2.2-1.4,3.4-0.9C285.8,544.3,285.8,544.5,285.7,544.7z"/>
	<path class="st1" d="M37.1,529.1c-0.2,0.4-0.4,0.9-0.7,1.3c-1,1.4-2.5,2.3-4.1,2.6c-0.3,0-0.5,0.1-0.8,0.1c-0.5,0-0.5-0.7,0-0.8
		c0.1,0,0.2,0,0.3,0c0-0.2,0-0.3,0-0.5c-0.1-0.1-0.2-0.2-0.2-0.4c0.1-0.5,0.3-0.9,0.6-1.3c0.4-0.6,0.9-1,1.5-1.4
		c0.5-0.3,1.1-0.5,1.6-0.7c0.4-0.1,1-0.4,1.5-0.2C37.5,528,37.3,528.7,37.1,529.1z"/>
	<path class="st1" d="M327.7,228.1c-0.1,0.2-0.3,0.4-0.4,0.5c-0.2,0.4-0.5,0.8-0.8,1.2c-0.1,0.1-0.2,0.1-0.3,0.1
		c-0.4,0.5-0.8,1-1.3,1.4c-0.3,0.4-0.9-0.2-0.5-0.5c0.5-0.5,0.9-1,1.4-1.5h-0.1c-0.1,0.2-0.6,0.3-0.7-0.1c-0.6-1.9,0.8-4.1,2.7-4.4
		c0.2,0,0.3,0,0.4,0.2C328.9,225.9,328.3,227.2,327.7,228.1z"/>
	<path class="st1" d="M161.9,400.2c-0.2,0.5-0.5,1-0.8,1.4s-0.7,0.7-1.1,0.9c-0.8,0.5-1.9,0.8-2.8,0.1c-0.1-0.1-0.2-0.2-0.2-0.4
		v-0.1c-0.1-1,0.6-1.9,1.5-2.3c0.5-0.2,1.1-0.4,1.6-0.4s1.1-0.1,1.6,0.1l0,0l0,0h0.1C161.9,399.8,162,400,161.9,400.2z"/>
</g>
</svg>
