<svg width="41" height="40" viewBox="0 0 41 40" fill="none" xmlns="http://www.w3.org/2000/svg">
<path d="M41 20C41 8.95599 31.8201 0 20.5 0C9.17989 0 0 8.95599 0 20C0 31.044 9.17989 40 20.5 40C20.6204 40 20.7402 39.9976 20.8604 39.9954V24.4263H16.4561V19.4186H20.8604V15.7336C20.8604 11.46 23.5345 9.13391 27.4421 9.13391C29.3133 9.13391 30.9217 9.27002 31.3906 9.33075V13.7973H28.6961C26.5703 13.7973 26.1586 14.783 26.1586 16.2292V19.4186H31.2417L30.5792 24.4263H26.1586V39.2273C34.7273 36.8307 41 29.129 41 20Z" fill="#F5F8F1"/>
</svg>
