<?xml version="1.0" encoding="utf-8"?>
<!-- Generator: Adobe Illustrator 26.0.3, SVG Export Plug-In . SVG Version: 6.00 Build 0)  -->
<svg version="1.1" xmlns="http://www.w3.org/2000/svg" xmlns:xlink="http://www.w3.org/1999/xlink" x="0px" y="0px"
	 viewBox="0 0 64 64" style="enable-background:new 0 0 64 64;" xml:space="preserve">
<style type="text/css">
	.st0{display:none;fill:#294DA5;}
	.st1{display:none;}
	.st2{display:inline;fill:#00AFF0;}
	.st3{display:inline;}
	.st4{fill:#FFFFFF;}
	.st5{fill-rule:evenodd;clip-rule:evenodd;fill:#5C83EF;}
	.st6{fill-rule:evenodd;clip-rule:evenodd;fill:#67A559;}
	.st7{fill-rule:evenodd;clip-rule:evenodd;fill:#EABA2D;}
	.st8{fill-rule:evenodd;clip-rule:evenodd;fill:#CA4539;}
</style>
<g id="BACKGROUND">
</g>
<g id="OBJECTS">
	<path class="st0" d="M32,0C14.3,0,0,14.3,0,32c0,13.9,8.9,25.8,21.3,30.2V37.5h-4.5v-8.1h4.5v-5.2c0-3.7,1.8-9.6,9.6-9.6l7.1,0v7.9
		h-5.1c-0.8,0-2,0.4-2,2.2v4.8h7.3l-0.8,8.1h-6.4V64c0.4,0,0.8,0,1.2,0c17.7,0,32-14.3,32-32C64,14.3,49.7,0,32,0z"/>
	<g class="st1">
		<circle class="st2" cx="32" cy="32" r="32"/>
		<g class="st3">
			<path class="st4" d="M52.2,21.1c-1.4,0.6-2.9,1-4.5,1.2c1.6-1,2.9-2.5,3.5-4.4c-1.5,0.9-3.2,1.6-5,1.9c-1.4-1.5-3.5-2.5-5.7-2.5
				c-4.3,0-7.9,3.5-7.9,7.9c0,0.6,0.1,1.2,0.2,1.8c-6.5-0.3-12.3-3.5-16.2-8.2c-0.7,1.2-1.1,2.5-1.1,4c0,2.7,1.4,5.1,3.5,6.6
				c-1.3,0-2.5-0.4-3.6-1c0,0,0,0.1,0,0.1c0,3.8,2.7,7,6.3,7.7c-0.7,0.2-1.4,0.3-2.1,0.3c-0.5,0-1,0-1.5-0.1c1,3.1,3.9,5.4,7.4,5.5
				c-2.7,2.1-6.1,3.4-9.8,3.4c-0.6,0-1.3,0-1.9-0.1c3.5,2.2,7.6,3.5,12.1,3.5c14.5,0,22.4-12,22.4-22.4c0-0.3,0-0.7,0-1
				C49.8,24.1,51.1,22.7,52.2,21.1L52.2,21.1z M52.2,21.1"/>
		</g>
	</g>
	<g>
		<path class="st5" d="M60.5,32.6c0-2.1-0.2-4-0.5-5.9H32.6v11.2h15.6c-0.7,3.6-2.7,6.7-5.8,8.8V54h9.4
			C57.3,48.9,60.5,41.5,60.5,32.6L60.5,32.6z"/>
		<path class="st6" d="M32.6,61.1c7.8,0,14.4-2.6,19.2-7l-9.4-7.3c-2.6,1.7-5.9,2.8-9.8,2.8c-7.6,0-14-5.1-16.3-12H6.6V45
			C11.4,54.5,21.2,61.1,32.6,61.1z"/>
		<path class="st7" d="M16.3,37.5c-0.6-1.7-0.9-3.6-0.9-5.5s0.3-3.8,0.9-5.5V19H6.6c-2,3.9-3.1,8.4-3.1,13.1s1.1,9.1,3.1,13.1
			L16.3,37.5z"/>
		<path class="st8" d="M32.6,14.5c4.3,0,8.1,1.5,11.1,4.3l8.3-8.3c-5-4.7-11.6-7.6-19.4-7.6c-11.4,0-21.2,6.5-26,16l9.7,7.5
			C18.6,19.6,25,14.5,32.6,14.5z"/>
	</g>
</g>
<g id="DESIGNED_BY_FREEPIK">
</g>
</svg>
