<svg width="22" height="22" viewBox="0 0 22 22" fill="none" xmlns="http://www.w3.org/2000/svg">
<g clip-path="url(#clip0_111_6)">
<path d="M19.9375 2.75H2.06251C0.925174 2.75 0 3.67517 0 4.81251V17.1875C0 18.3248 0.925174 19.25 2.06251 19.25H19.9375C21.0748 19.25 22 18.3248 22 17.1875V4.81251C22 3.67517 21.0748 2.75 19.9375 2.75ZM19.9375 4.12499C20.0309 4.12499 20.1198 4.14437 20.201 4.17822L11 12.1528L1.79896 4.17822C1.8802 4.14442 1.96906 4.12499 2.06247 4.12499H19.9375ZM19.9375 17.875H2.06251C1.68319 17.875 1.37499 17.5668 1.37499 17.1875V5.63092L10.5495 13.5821C10.6791 13.6942 10.8395 13.75 11 13.75C11.1605 13.75 11.3209 13.6943 11.4505 13.5821L20.625 5.63092V17.1875C20.625 17.5668 20.3168 17.875 19.9375 17.875Z" fill="#7D9947"/>
</g>
<defs>
<clipPath id="clip0_111_6">
<rect width="22" height="22" fill="white"/>
</clipPath>
</defs>
</svg>
