<svg width="22" height="22" viewBox="0 0 22 22" fill="none" xmlns="http://www.w3.org/2000/svg">
<path d="M11 0C6.73527 0 3.26562 3.46964 3.26562 7.73438C3.26562 9.17529 3.66476 10.5815 4.42015 11.8015L10.5597 21.6953C10.6773 21.8848 10.8845 22 11.1074 22C11.1091 22 11.1108 22 11.1125 22C11.3373 21.9982 11.5449 21.8795 11.6603 21.6867L17.6434 11.697C18.3572 10.5028 18.7344 9.13253 18.7344 7.73438C18.7344 3.46964 15.2647 0 11 0ZM16.5372 11.0351L11.0976 20.1174L5.51577 11.1223C4.88701 10.1069 4.54609 8.93535 4.54609 7.73438C4.54609 4.18043 7.44605 1.28047 11 1.28047C14.5539 1.28047 17.4496 4.18043 17.4496 7.73438C17.4496 8.89973 17.1312 10.0413 16.5372 11.0351Z" fill="#7D9947"/>
<path d="M11 3.86719C8.86763 3.86719 7.13281 5.60201 7.13281 7.73438C7.13281 9.85312 8.8394 11.6016 11 11.6016C13.1872 11.6016 14.8672 9.82983 14.8672 7.73438C14.8672 5.60201 13.1324 3.86719 11 3.86719ZM11 10.3211C9.57099 10.3211 8.41328 9.15952 8.41328 7.73438C8.41328 6.3128 9.57842 5.14766 11 5.14766C12.4216 5.14766 13.5824 6.3128 13.5824 7.73438C13.5824 9.13872 12.4517 10.3211 11 10.3211Z" fill="#7D9947"/>
</svg>
