<svg width="30" height="30" viewBox="0 0 30 30" fill="none" xmlns="http://www.w3.org/2000/svg">
<path d="M15 0C6.72914 0 0 6.72914 0 15C0 23.2709 6.72914 30 15 30C23.2709 30 30 23.2709 30 15C30 6.72914 23.2709 0 15 0ZM15 28.75C7.4182 28.75 1.24998 22.5818 1.24998 15C1.24998 7.4182 7.4182 1.24998 15 1.24998C22.5818 1.24998 28.75 7.4182 28.75 15C28.75 22.5818 22.5818 28.75 15 28.75Z" fill="#747373"/>
<path d="M17.9419 8.93312C17.6978 8.68896 17.3022 8.68896 17.0581 8.93312C16.814 9.17728 16.814 9.57279 17.0581 9.81689L21.6163 14.375H6.87502C6.52955 14.375 6.25 14.6546 6.25 15C6.25 15.3455 6.52955 15.6251 6.87502 15.6251H21.6162L17.0581 20.1832C16.8139 20.4274 16.8139 20.8229 17.0581 21.067C17.1801 21.189 17.3401 21.2501 17.5 21.2501C17.6599 21.2501 17.8198 21.189 17.9419 21.067L23.5669 15.442C23.8111 15.1978 23.8111 14.8023 23.5669 14.5582L17.9419 8.93312Z" fill="#747373"/>
</svg>
