<?xml version="1.0" encoding="utf-8"?>
<!-- Generator: Adobe Illustrator 26.0.3, SVG Export Plug-In . SVG Version: 6.00 Build 0)  -->
<svg version="1.1" xmlns="http://www.w3.org/2000/svg" xmlns:xlink="http://www.w3.org/1999/xlink" x="0px" y="0px"
	 viewBox="0 0 500 500" style="enable-background:new 0 0 500 500;" xml:space="preserve">
<style type="text/css">
	.st0{display:none;}
	.st1{display:inline;fill:#F1BFBB;}
	.st2{display:inline;}
	.st3{fill:#FAFCFB;stroke:#384658;stroke-width:2;stroke-miterlimit:10;}
	.st4{fill:none;stroke:#384658;stroke-width:2;stroke-miterlimit:10;}
	.st5{display:none;fill:#F1BFBB;}
	.st6{fill:#384658;}
</style>
<g id="Objects">
	<g class="st0">
		<path class="st1" d="M423,220.9c0,96-77.8,173.9-173.9,173.9S75.3,317,75.3,220.9c0-96,77.8-173.9,173.9-173.9
			S423,124.9,423,220.9z"/>
		<g class="st2">
			<path class="st3" d="M375,454.1c0,0,2.2-170.2-3.2-223.8c-4.2-42.1-21.1-116.8-133.8-116.8c-112.7,0-125.2,66.8-128.6,106.3
				c-2.1,24.6-4.1,73.5,0,97.8c7.9,46.4,40.6,136.4,137.7,136.4C344,454.1,375,454.1,375,454.1z"/>
			<g>
				<path class="st4" d="M241.2,359.4c0,0,3.5-96.4-121.1-96.4"/>
				<path class="st4" d="M241.2,359.4c0,0-3.5-96.4,121.1-96.4"/>
			</g>
			<g>
				<g>
					<ellipse class="st4" cx="182" cy="199.8" rx="42.7" ry="42.7"/>
				</g>
				<g>
					<path class="st4" d="M199.1,203.6c-0.1-9.4-7.7-17-17.1-17c-9.4,0-17,7.6-17.1,17"/>
				</g>
			</g>
			<g>
				<g>
					<ellipse class="st4" cx="301.7" cy="199.8" rx="42.7" ry="42.7"/>
				</g>
				<g>
					<path class="st4" d="M318.8,203.6c-0.1-9.4-7.7-17-17.1-17c-9.4,0-17,7.6-17.1,17"/>
				</g>
			</g>
			<g>
				<path class="st4" d="M241.2,215.7c0,0,3.5-96.4-121.1-96.4"/>
				<path class="st4" d="M241.2,215.7c0,0-3.5-96.4,121.1-96.4"/>
			</g>
			<path class="st4" d="M230.2,231.8c0-11,5.2-20,11.5-20c6.4,0,11.5,8.9,11.5,20s-11.5,20-11.5,20S230.2,242.8,230.2,231.8z"/>
			<g>
				<line class="st4" x1="205.2" y1="346.4" x2="205.2" y2="366.3"/>
				<line class="st4" x1="241.1" y1="346.4" x2="241.1" y2="366.3"/>
				<line class="st4" x1="277" y1="346.4" x2="277" y2="366.3"/>
				<line class="st4" x1="261.1" y1="382.3" x2="261.1" y2="402.3"/>
				<line class="st4" x1="241.1" y1="414.2" x2="241.1" y2="434.2"/>
				<line class="st4" x1="221.2" y1="382.3" x2="221.2" y2="402.3"/>
			</g>
			<path class="st4" d="M107,283.8c0,0,33.2,10.2,49.8,50.6s16.5,99.8,16.5,99.8"/>
			<path class="st4" d="M374.2,274.5c0,0-36,36.2-37.9,79.8c-2.6,61.6,36,96.3,36,96.3"/>
			<line class="st4" x1="133.4" y1="454.1" x2="404.7" y2="454.1"/>
		</g>
	</g>
	<g>
		<circle class="st5" cx="249.3" cy="178.6" r="195.6"/>
		<path class="st4" d="M391.6,441.4c0,0,2.3-191.5-3.7-251.7c-4.8-47.4-23.7-131.2-150.4-131.2C110.8,58.4,96.7,133.6,92.9,178
			c-2.4,27.6-4.7,82.5,0,109.8c8.9,52.1,29.3,153.6,138.4,153.6C340.3,441.4,391.6,441.4,391.6,441.4z"/>
		<g>
			<circle class="st4" cx="173.8" cy="155.4" r="48"/>
			<path class="st6" d="M184.1,155.4c0,5.7-4.6,10.4-10.4,10.4c-5.7,0-10.4-4.6-10.4-10.4s4.6-10.4,10.4-10.4
				C179.5,145,184.1,149.7,184.1,155.4z"/>
		</g>
		<g>
			<circle class="st4" cx="312.9" cy="155.4" r="48"/>
			<path class="st6" d="M323.2,155.4c0,5.7-4.6,10.4-10.4,10.4c-5.7,0-10.4-4.6-10.4-10.4s4.6-10.4,10.4-10.4
				C318.6,145,323.2,149.7,323.2,155.4z"/>
		</g>
		<g>
			<path class="st4" d="M240.3,168.7C239.1,147.9,226.8,65,104.3,65"/>
			<path class="st4" d="M240.5,168.7C241.6,148,253.9,65,376.5,65"/>
		</g>
		<path class="st4" d="M228,191.4c0-12.4,5.8-22.4,12.9-22.4c7.1,0,12.9,10,12.9,22.4c0,12.4-12.9,22.4-12.9,22.4
			S228,203.8,228,191.4z"/>
		<path class="st4" d="M278.3,268.3c0,0-15.2,148.6,52.3,173"/>
		<g>
			<line class="st4" x1="159.5" y1="306.8" x2="159.5" y2="329.2"/>
			<line class="st4" x1="199.9" y1="306.8" x2="199.9" y2="329.2"/>
			<line class="st4" x1="240.3" y1="306.8" x2="240.3" y2="329.2"/>
			<line class="st4" x1="222.3" y1="347.2" x2="222.3" y2="369.6"/>
			<line class="st4" x1="199.9" y1="383.1" x2="199.9" y2="405.5"/>
			<line class="st4" x1="177.4" y1="347.2" x2="177.4" y2="369.6"/>
		</g>
		<line class="st4" x1="96.7" y1="441.4" x2="401.8" y2="441.4"/>
		<line class="st4" x1="195.4" y1="62" x2="195.4" y2="88"/>
		<line class="st4" x1="217.8" y1="60" x2="217.8" y2="109.4"/>
		<line class="st4" x1="285" y1="63" x2="285.1" y2="89"/>
		<line class="st4" x1="262.7" y1="60" x2="262.7" y2="109.4"/>
		<line class="st4" x1="240.3" y1="58" x2="240.3" y2="145.3"/>
		<path class="st4" d="M317.4,268.3c0,0-10.8,115.4,74.7,121.2"/>
	</g>
</g>
<g id="Designed_by_freepik">
</g>
</svg>
