<svg width="20" height="20" viewBox="0 0 20 20" fill="none" xmlns="http://www.w3.org/2000/svg">
<g clip-path="url(#clip0_111_8)">
<path d="M18.3952 13.1277C17.1707 13.1277 15.9684 12.9362 14.8291 12.5597C14.2611 12.366 13.6144 12.5163 13.2438 12.8939L10.995 14.5915C8.38703 13.1994 6.78057 11.5934 5.40745 9.00505L7.0551 6.81484C7.48318 6.38734 7.63672 5.76286 7.45276 5.17693C7.07464 4.03161 6.88255 2.8299 6.88255 1.6049C6.8826 0.719948 6.16266 0 5.27776 0H1.60479C0.719948 0 0 0.719948 0 1.60479C0 11.7481 8.25198 20 18.3952 20C19.2801 20 20.0001 19.2801 20.0001 18.3952V14.7325C20 13.8477 19.2801 13.1277 18.3952 13.1277ZM18.8889 18.3952C18.8889 18.6676 18.6676 18.8889 18.3952 18.8889C8.86448 18.8889 1.11115 11.1355 1.11115 1.60484C1.11115 1.3325 1.3325 1.11115 1.60484 1.11115H5.27781C5.55016 1.11115 5.77151 1.3325 5.77151 1.60484C5.77151 2.9487 5.98255 4.2676 6.39542 5.51708C6.45292 5.70156 6.40625 5.8925 6.21964 6.08677L4.3099 8.61599C4.18188 8.78578 4.16177 9.01312 4.25781 9.20245C5.81651 12.2661 7.71052 14.1602 10.7959 15.7411C10.9836 15.8393 11.2136 15.8187 11.384 15.6901L13.9714 13.7299C14.1021 13.5992 14.298 13.5526 14.4748 13.6128C15.733 14.0283 17.0519 14.2389 18.3952 14.2389C18.6676 14.2389 18.8889 14.4602 18.8889 14.7326V18.3952Z" fill="#7D9947"/>
</g>
<defs>
<clipPath id="clip0_111_8">
<rect width="20" height="20" fill="white"/>
</clipPath>
</defs>
</svg>
