<svg width="40" height="40" viewBox="0 0 40 40" fill="none" xmlns="http://www.w3.org/2000/svg">
<path d="M20.0014 0C8.97379 0 0.00170898 8.97208 0.00170898 20.0004C0.00170898 27.937 4.70078 35.1263 11.9727 38.3166L12.9501 38.7453L12.9068 37.6799C12.8408 36.0331 12.9481 34.6003 13.2255 33.4222C13.5982 31.8494 15.713 22.884 15.713 22.884L15.767 22.6486L15.6617 22.4339C15.6557 22.4226 15.1124 21.2998 15.1124 19.6744C15.1124 17.2422 16.4585 15.3374 18.1766 15.3374C19.9767 15.3374 20.1168 17.0475 20.1168 17.5716C20.1168 18.595 19.6754 20.0238 19.2087 21.5359C18.9307 22.4352 18.6434 23.3653 18.4279 24.2781C18.1579 25.4196 18.3893 26.529 19.0793 27.4018C19.7927 28.3039 20.9028 28.8205 22.1249 28.8205C25.9999 28.8205 28.9215 24.1155 28.9215 17.8756C28.9215 12.9719 25.5025 9.80293 20.2115 9.80293C14.4063 9.80293 10.0286 14.0686 10.0286 19.7264C10.0286 21.4279 10.4966 22.8087 11.4607 23.9508C11.616 24.1328 11.6428 24.1908 11.6454 24.1974C11.6467 24.2054 11.6481 24.2534 11.5988 24.4335L11.5508 24.6261C11.4488 25.0348 11.2855 25.6902 11.2094 25.9769C11.2028 26.0016 11.1961 26.0196 11.1941 26.0303C11.1801 26.0277 11.1615 26.0223 11.1381 26.0123C8.88659 25.0956 7.59516 22.6287 7.59516 19.2451C7.59516 11.3745 15.2851 7.83488 20.7463 7.83488C27.9909 7.83488 32.3199 13.1266 32.3199 18.2437C32.3199 25.6523 28.3035 30.8268 22.5531 30.8268C20.6389 30.8268 18.9494 29.7841 18.4214 28.7766L17.6113 27.2299L17.1839 28.9227C17.1733 28.9674 16.0592 33.3804 15.8285 34.2211C15.5064 35.3885 14.8605 36.7593 13.9617 38.1848L13.4917 38.9301L14.3364 39.1802C16.1745 39.7236 18.0807 40.0002 20.0016 40.0002C31.0285 40.0002 39.9999 31.0282 39.9999 20.0006C39.9998 8.97208 31.0283 0 20.0014 0Z" fill="#F5F8F1"/>
</svg>
