<svg width="20" height="20" viewBox="0 0 20 20" fill="none" xmlns="http://www.w3.org/2000/svg">
<g clip-path="url(#clip0_97_897)">
<path d="M8.24345 16.4718C3.70216 16.4718 0.00756836 12.7772 0.00756836 8.23588C0.00756836 3.69459 3.70216 0 8.24345 0C12.7847 0 16.4793 3.69459 16.4793 8.23588C16.4793 12.7772 12.7847 16.4718 8.24345 16.4718ZM8.24345 1.5613C4.56307 1.5613 1.56887 4.5555 1.56887 8.23588C1.56887 11.9163 4.56307 14.9105 8.24345 14.9105C11.9238 14.9105 14.918 11.9163 14.918 8.23588C14.918 4.5555 11.9238 1.5613 8.24345 1.5613ZM19.7637 19.7713C20.0685 19.4665 20.0685 18.9722 19.7637 18.6673L16.2702 15.1739C15.9654 14.869 15.471 14.869 15.1662 15.1739C14.8614 15.4788 14.8614 15.9731 15.1662 16.2779L18.6596 19.7713C18.812 19.9238 19.0118 20 19.2117 20C19.4115 20 19.6112 19.9238 19.7637 19.7713Z" fill="#686868"/>
</g>
<defs>
<clipPath id="clip0_97_897">
<rect width="20" height="20" fill="white"/>
</clipPath>
</defs>
</svg>
