<?xml version="1.0" encoding="utf-8"?>
<!-- Generator: Adobe Illustrator 26.0.3, SVG Export Plug-In . SVG Version: 6.00 Build 0)  -->
<svg version="1.1" xmlns="http://www.w3.org/2000/svg" xmlns:xlink="http://www.w3.org/1999/xlink" x="0px" y="0px"
	 viewBox="0 0 64 64" style="enable-background:new 0 0 64 64;" xml:space="preserve">
<style type="text/css">
	.st0{display:none;fill:#294DA5;}
	.st1{fill:#00AFF0;}
	.st2{fill:#FFFFFF;}
	.st3{display:none;}
	.st4{display:inline;fill-rule:evenodd;clip-rule:evenodd;fill:#5C83EF;}
	.st5{display:inline;fill-rule:evenodd;clip-rule:evenodd;fill:#67A559;}
	.st6{display:inline;fill-rule:evenodd;clip-rule:evenodd;fill:#EABA2D;}
	.st7{display:inline;fill-rule:evenodd;clip-rule:evenodd;fill:#CA4539;}
</style>
<g id="BACKGROUND">
</g>
<g id="OBJECTS">
	<path class="st0" d="M32,0C14.3,0,0,14.3,0,32c0,13.9,8.9,25.8,21.3,30.2V37.5h-4.5v-8.1h4.5v-5.2c0-3.7,1.8-9.6,9.6-9.6l7.1,0v7.9
		h-5.1c-0.8,0-2,0.4-2,2.2v4.8h7.3l-0.8,8.1h-6.4V64c0.4,0,0.8,0,1.2,0c17.7,0,32-14.3,32-32C64,14.3,49.7,0,32,0z"/>
	<g>
		<circle class="st1" cx="32" cy="32" r="32"/>
		<g>
			<path class="st2" d="M52.2,21.1c-1.4,0.6-2.9,1-4.5,1.2c1.6-1,2.9-2.5,3.5-4.4c-1.5,0.9-3.2,1.6-5,1.9c-1.4-1.5-3.5-2.5-5.7-2.5
				c-4.3,0-7.9,3.5-7.9,7.9c0,0.6,0.1,1.2,0.2,1.8c-6.5-0.3-12.3-3.5-16.2-8.2c-0.7,1.2-1.1,2.5-1.1,4c0,2.7,1.4,5.1,3.5,6.6
				c-1.3,0-2.5-0.4-3.6-1c0,0,0,0.1,0,0.1c0,3.8,2.7,7,6.3,7.7c-0.7,0.2-1.4,0.3-2.1,0.3c-0.5,0-1,0-1.5-0.1c1,3.1,3.9,5.4,7.4,5.5
				c-2.7,2.1-6.1,3.4-9.8,3.4c-0.6,0-1.3,0-1.9-0.1c3.5,2.2,7.6,3.5,12.1,3.5c14.5,0,22.4-12,22.4-22.4c0-0.3,0-0.7,0-1
				C49.8,24.1,51.1,22.7,52.2,21.1L52.2,21.1z M52.2,21.1"/>
		</g>
	</g>
	<g class="st3">
		<path class="st4" d="M63.4,32.7c0-2.3-0.2-4.4-0.6-6.5H32.6v12.4h17.2c-0.7,4-3,7.4-6.4,9.7v8h10.3C59.9,50.7,63.4,42.5,63.4,32.7
			L63.4,32.7z"/>
		<path class="st5" d="M32.7,64c8.6,0,15.9-2.9,21.2-7.8l-10.3-8c-2.9,1.9-6.5,3.1-10.8,3.1c-8.3,0-15.4-5.6-17.9-13.2H4.1v8.3
			C9.3,56.8,20.1,64,32.7,64z"/>
		<path class="st6" d="M14.7,38.1c-0.6-1.9-1-4-1-6.1s0.4-4.2,1-6.1v-8.3H4C1.9,22,0.6,26.8,0.6,32S1.9,42.1,4,46.4L14.7,38.1z"/>
		<path class="st7" d="M32.7,12.7c4.7,0,8.9,1.6,12.2,4.8l9.2-9.2C48.5,3.2,41.3,0,32.6,0C20.1,0,9.3,7.2,4.1,17.6l10.7,8.3
			C17.3,18.4,24.3,12.7,32.7,12.7z"/>
	</g>
</g>
<g id="DESIGNED_BY_FREEPIK">
</g>
</svg>
