<svg width="41" height="40" viewBox="0 0 41 40" fill="none" xmlns="http://www.w3.org/2000/svg">
<path d="M20.5 0C9.17989 0 0 8.95599 0 20C0 31.044 9.17989 40 20.5 40C31.8201 40 41 31.044 41 20C41 8.95599 31.8201 0 20.5 0ZM29.8601 15.5939C29.8691 15.7907 29.8735 15.9885 29.8735 16.1871C29.8735 22.2531 25.1408 29.248 16.4858 29.2484H16.4861H16.4858C13.8285 29.2484 11.3558 28.4885 9.27342 27.1863C9.64159 27.2287 10.0163 27.2498 10.3958 27.2498C12.6004 27.2498 14.6293 26.5161 16.2399 25.2847C14.1801 25.2475 12.4434 23.9203 11.8441 22.0963C12.1309 22.15 12.4259 22.1793 12.7284 22.1793C13.1578 22.1793 13.5739 22.1228 13.9693 22.0175C11.8162 21.597 10.1943 19.7406 10.1943 17.5177C10.1943 17.4969 10.1943 17.4783 10.1949 17.4591C10.829 17.803 11.5541 18.0099 12.3261 18.0331C11.0627 17.2107 10.2322 15.8047 10.2322 14.212C10.2322 13.371 10.4652 12.583 10.8694 11.9046C13.1897 14.6823 16.6575 16.5091 20.5682 16.701C20.4875 16.3647 20.4459 16.0144 20.4459 15.6543C20.4459 13.1201 22.5533 11.0641 25.1517 11.0641C26.5052 11.0641 27.7277 11.6223 28.5863 12.5146C29.6583 12.3083 30.6649 11.9263 31.5742 11.4005C31.2223 12.4719 30.4766 13.371 29.505 13.9395C30.4569 13.8284 31.364 13.5822 32.207 13.2166C31.5774 14.1373 30.7788 14.946 29.8601 15.5939Z" fill="#F5F8F1"/>
</svg>
