<svg width="14" height="14" viewBox="0 0 14 14" fill="none" xmlns="http://www.w3.org/2000/svg">
  <style type="text/css">
    path { fill: #464646; }
  </style>
  <path d="M13.911 6.72769C13.786 6.5566 10.8059 2.53845 6.99993 2.53845C3.19392 2.53845 0.213774 6.5566 0.08884 6.72752C-0.0296133 6.88984 -0.0296133 7.10998 0.08884 7.27229C0.213774 7.44338 3.19392 11.4615 6.99993 11.4615C10.8059 11.4615 13.786 7.44336 13.911 7.27243C14.0296 7.11015 14.0296 6.88984 13.911 6.72769ZM6.99993 10.5385C4.1964 10.5385 1.76824 7.87153 1.04946 6.99968C1.76731 6.12705 4.19038 3.46152 6.99993 3.46152C9.80333 3.46152 12.2313 6.12798 12.9504 7.0003C12.2326 7.8729 9.80948 10.5385 6.99993 10.5385Z"/>
  <path d="M6.99995 4.23083C5.47302 4.23083 4.23071 5.47315 4.23071 7.00008C4.23071 8.52701 5.47302 9.76932 6.99995 9.76932C8.52689 9.76932 9.7692 8.52701 9.7692 7.00008C9.7692 5.47315 8.52689 4.23083 6.99995 4.23083ZM6.99995 8.84622C5.98195 8.84622 5.15381 8.01806 5.15381 7.00008C5.15381 5.9821 5.98197 5.15393 6.99995 5.15393C8.01794 5.15393 8.8461 5.9821 8.8461 7.00008C8.8461 8.01806 8.01796 8.84622 6.99995 8.84622Z"/>
</svg>
