<?xml version="1.0" encoding="utf-8"?>
<!-- Generator: Adobe Illustrator 26.0.3, SVG Export Plug-In . SVG Version: 6.00 Build 0)  -->
<svg version="1.1" id="Слой_1" xmlns="http://www.w3.org/2000/svg" xmlns:xlink="http://www.w3.org/1999/xlink" x="0px" y="0px"
	 viewBox="0 0 14 14" style="enable-background:new 0 0 14 14;" xml:space="preserve">
<style type="text/css">
	.st0{fill:#464646;}
	.st1{fill:#FFFFFF;}
</style>
<path class="st0" d="M13.9,6.7C13.8,6.6,10.8,2.5,7,2.5c-3.8,0-6.8,4-6.9,4.2C0,6.9,0,7.1,0.1,7.3c0.1,0.2,3.1,4.2,6.9,4.2
	c3.8,0,6.8-4,6.9-4.2C14,7.1,14,6.9,13.9,6.7z M7,10.5c-2.8,0-5.2-2.7-6-3.5c0.7-0.9,3.1-3.5,6-3.5c2.8,0,5.2,2.7,6,3.5
	C12.2,7.9,9.8,10.5,7,10.5z"/>
<path class="st0" d="M7,4.2C5.5,4.2,4.2,5.5,4.2,7S5.5,9.8,7,9.8c1.5,0,2.8-1.2,2.8-2.8S8.5,4.2,7,4.2z M7,8.8C6,8.8,5.2,8,5.2,7
	S6,5.2,7,5.2C8,5.2,8.8,6,8.8,7S8,8.8,7,8.8z"/>
<rect x="-4" y="6.3" transform="matrix(0.6638 -0.7479 0.7479 0.6638 -2.8818 7.5881)" class="st1" width="21.9" height="1.4"/>
<rect x="-0.3" y="6.5" transform="matrix(0.6638 -0.7479 0.7479 0.6638 -2.882 7.5882)" class="st0" width="14.6" height="0.9"/>
</svg>
